<svg width="428" height="87" viewBox="0 0 428 87" fill="none" xmlns="http://www.w3.org/2000/svg">
<g filter="url(#filter0_d)">
<mask id="path-1-outside-1" maskUnits="userSpaceOnUse" x="2" y="2" width="416" height="75" fill="black">
<rect fill="white" x="2" y="2" width="416" height="75"/>
<path fill-rule="evenodd" clip-rule="evenodd" d="M315.603 31.224C316.051 30.904 316.435 30.648 316.755 30.456L320.691 27.96C328.691 22.968 332.947 20.472 333.459 20.472C333.651 20.472 333.747 20.504 333.747 20.568L333.555 20.952C331.955 23 330.419 25.816 328.947 29.4C327.475 32.92 326.515 35.064 326.067 35.832C325.619 36.6 324.755 37.496 323.475 38.52C322.259 39.544 320.947 40.056 319.539 40.056C318.131 40.056 317.043 39.672 316.275 38.904C315.507 38.072 315.123 37.24 315.123 36.408C315.123 35.576 315.251 34.936 315.507 34.488C315.827 34.04 316.211 33.816 316.659 33.816C316.915 33.816 317.075 34.104 317.139 34.68C317.267 35.256 317.619 35.544 318.195 35.544C318.835 35.544 319.347 35.288 319.731 34.776C320.179 34.264 320.403 33.72 320.403 33.144C320.403 32.12 319.763 31.608 318.483 31.608C317.203 31.608 316.083 32.088 315.123 33.048C314.227 34.008 313.779 35.16 313.779 36.504C313.779 37.848 314.323 39.032 315.411 40.056C316.499 41.08 317.907 41.592 319.635 41.592H319.731C320.435 41.592 322.099 41.208 324.723 40.44L327.411 39.096C328.179 38.712 329.267 38.104 330.675 37.272L333.843 35.256C334.611 34.808 335.891 34.008 337.683 32.856C338.445 32.3661 339.114 31.9399 339.691 31.5773C336.996 35.3894 335.649 37.8317 335.649 38.904C335.649 40.12 336.033 40.728 336.801 40.728C337.825 40.728 339.905 39.896 343.041 38.232C346.177 36.504 349.057 34.776 351.681 33.048L353.735 31.6951C352.905 33.6324 352.491 35.5874 352.491 37.56C352.491 39.48 353.003 40.44 354.027 40.44C355.115 40.44 357.387 39.16 360.843 36.6C364.363 34.04 366.219 32.76 366.411 32.76C366.667 32.76 366.795 32.824 366.795 32.952C366.539 33.336 364.683 35.544 361.227 39.576C359.627 41.496 358.091 43.352 356.619 45.144C355.723 45.848 353.291 47.64 349.323 50.52C345.355 53.464 342.091 56.056 339.531 58.296C332.491 64.44 328.971 69.848 328.971 74.52C328.971 75.416 329.643 75.864 330.987 75.864C332.331 75.864 336.811 71.928 344.427 64.056C351.979 56.248 358.283 48.92 363.339 42.072L372.075 37.56C375.346 35.8076 378.83 33.6821 382.528 31.1833L382.538 31.224L388.97 27.288C387.69 28.888 385.354 31.576 381.962 35.352L378.89 38.616C377.802 39.768 377.258 40.376 377.258 40.44C377.258 40.504 377.29 40.568 377.354 40.632C377.418 40.696 378.218 40.792 379.754 40.92C380.714 40.92 381.77 40.312 382.922 39.096C383.434 38.52 383.754 38.2 383.882 38.136C384.074 38.008 385.674 36.824 388.682 34.584C389.834 33.752 393.77 30.968 400.49 26.232C407.274 21.432 411.594 18.584 413.45 17.688C413.578 17.688 413.642 17.752 413.642 17.88C413.642 18.712 412.17 20.44 409.226 23.064C406.282 25.624 403.306 28.536 400.298 31.8C397.354 35 395.882 37.784 395.882 40.152C395.882 40.536 396.074 40.728 396.458 40.728C398.698 40.728 404.97 37.304 415.274 30.456L415.178 29.208L411.242 31.8C403.37 36.856 399.05 39.384 398.282 39.384C398.026 39.384 397.898 39.352 397.898 39.288C397.898 38.712 400.97 35.608 407.114 29.976C409.418 27.864 411.53 25.56 413.45 23.064C415.37 20.568 416.33 18.712 416.33 17.496C416.33 16.216 416.01 15.576 415.37 15.576C414.794 15.576 413.45 16.312 411.338 17.784C409.226 19.192 404.298 22.584 396.554 27.96C392.714 30.648 390.346 32.344 389.45 33.048C388.618 33.688 388.138 34.008 388.01 34.008C387.946 34.008 387.914 33.88 387.914 33.624C387.914 33.368 388.618 32.408 390.026 30.744C391.434 29.016 393.226 26.872 395.402 24.312C397.578 21.688 399.306 19.448 400.586 17.592C400.586 16.312 400.202 15.544 399.434 15.288C399.242 15.544 398.314 16.728 396.65 18.84C396.394 19.16 395.658 19.992 394.442 21.336C393.226 22.616 390.218 24.856 385.418 28.056L382.25 30.072L382.251 30.0764L379.467 31.8C371.531 36.856 367.019 39.384 365.931 39.384C366.571 38.232 372.747 30.296 384.459 15.576C384.459 14.808 384.107 14.424 383.403 14.424C374.891 14.424 367.595 16.952 361.515 22.008C358.489 24.5511 356.224 27.1266 354.72 29.7345C344.919 36.1675 339.458 39.384 338.337 39.384C338.017 39.384 337.857 39.256 337.857 39C338.561 37.4 341.377 33.752 346.305 28.056C351.297 22.36 355.073 18.232 357.633 15.672C358.017 15.16 358.209 14.808 358.209 14.616C358.209 14.36 357.953 14.2 357.441 14.136L355.233 13.944C354.721 13.944 354.241 14.2 353.793 14.712C349.441 19.128 345.313 23.96 341.409 29.208C341.403 29.2152 341.398 29.2223 341.393 29.2295L330.675 36.024C330.611 36.088 330.483 36.12 330.291 36.12C330.163 36.12 330.099 35.992 330.099 35.736C330.291 35.352 331.475 32.6 333.651 27.48C335.891 22.296 337.491 19.224 338.451 18.264C338.643 18.008 339.187 17.432 340.083 16.536C341.043 15.64 341.779 14.872 342.291 14.232C342.803 13.528 343.059 13.048 343.059 12.792C343.059 12.472 342.899 12.312 342.579 12.312C342.451 12.248 341.171 13.176 338.739 15.096C337.587 16.12 336.531 17.016 335.571 17.784L332.979 19.32C328.435 21.88 322.547 25.464 315.315 30.072L315.603 31.224ZM354.72 29.7345C354.983 29.5614 355.25 29.3858 355.521 29.208L355.617 30.456L353.735 31.6951C354.016 31.0395 354.344 30.386 354.72 29.7345ZM341.393 29.2295L341.427 29.208L341.523 30.456C341.081 30.7135 340.471 31.0872 339.691 31.5773C340.209 30.8452 340.776 30.0626 341.393 29.2295ZM375.147 22.68C372.011 26.264 369.899 28.472 368.811 29.304C368.427 29.688 366.667 31.032 363.531 33.336C362.699 33.976 361.643 34.744 360.363 35.64C359.147 36.472 358.091 37.144 357.195 37.656C356.363 38.104 355.755 38.328 355.371 38.328C354.987 38.328 354.795 38.136 354.795 37.752C354.795 33.976 357.707 29.432 363.531 24.12C369.355 18.744 374.539 16.056 379.083 16.056C379.595 16.056 379.851 16.184 379.851 16.44C379.851 17.016 378.283 19.096 375.147 22.68ZM348.459 55.032C338.091 67.448 332.523 73.656 331.755 73.656C331.563 73.656 331.467 73.464 331.467 73.08C331.467 71.032 332.171 68.888 333.579 66.648C334.923 64.408 337.483 61.624 341.259 58.296C345.035 55.032 349.099 51.832 353.451 48.696C353.579 48.696 353.643 48.76 353.643 48.888L348.459 55.032Z"/>
<path d="M360.513 7.224C360.513 8.184 361.057 8.664 362.145 8.664C363.233 8.664 364.225 8.184 365.121 7.224C366.017 6.2 366.465 5.432 366.465 4.92C366.465 4.408 366.273 3.96 365.889 3.576C365.569 3.192 365.057 3 364.353 3C363.713 3 362.913 3.448 361.953 4.344C360.993 5.24 360.513 6.2 360.513 7.224Z"/>
<path d="M30.9803 21.0938C31.7014 19.5716 32.0619 17.9291 32.0619 16.1665C32.0619 12.5611 30.9603 9.73688 28.757 7.69383C26.5537 5.61071 23.5292 4.56915 19.6834 4.56915H4L4.06009 5.17005H4.78117C5.78266 5.17005 6.64395 5.51056 7.36503 6.19158C8.0861 6.83254 8.50673 7.65377 8.62691 8.65526V42.2454C8.58685 43.287 8.18625 44.1883 7.42512 44.9495C6.70404 45.6706 5.82272 46.0311 4.78117 46.0311H4V46.632H17.1597V46.0311H16.3785C15.3369 46.0311 14.4356 45.6706 13.6745 44.9495C12.9534 44.1883 12.5728 43.287 12.5327 42.2454V6.37185H19.4431C21.9668 6.37185 23.9298 7.21311 25.3319 8.89562C26.734 10.5381 27.4751 12.7614 27.5552 15.5656V16.8876C27.5552 17.6086 27.435 18.3698 27.1947 19.171C26.3935 21.7348 24.8912 23.5776 22.6879 24.6992C20.2042 25.9811 17.5002 26.3016 14.5758 25.6607V26.2616C16.3785 27.1829 18.5217 27.6436 21.0054 27.6436C21.8467 27.6436 22.8482 27.4433 24.0099 27.0427C27.3349 25.9211 29.6583 23.9381 30.9803 21.0938Z"/>
<path d="M45.8455 12.4409H49.0302C50.4323 12.4409 51.6742 12.4609 52.7558 12.501C55.1995 12.6212 57.1424 13.3423 58.5845 14.6642C60.0267 15.9862 60.7478 17.869 60.7478 20.3127C60.7478 22.2355 60.247 23.9982 59.2455 25.6006C58.7648 26.3617 57.8634 27.0828 56.5415 27.7638C55.58 28.2445 52.7558 28.4849 48.0688 28.4849V29.0858C49.9516 29.0858 51.9746 30.4278 54.1379 33.1118C54.2581 33.272 55.1995 34.614 56.9621 37.1378C58.7648 39.6215 59.7863 41.0236 60.0267 41.3441C61.1483 42.7061 62.3902 43.8478 63.7522 44.7692C65.5549 46.0111 68.0386 46.632 71.2034 46.632H73.0662V46.0311C71.1433 46.0311 69.4407 45.3301 67.9585 43.928C67.3977 43.4072 66.6766 42.6661 65.7953 41.7046C64.954 40.7031 63.8123 39.3211 62.3702 37.5584C60.9681 35.7958 60.2871 34.9145 60.3271 34.9145C58.5244 32.3507 56.9821 30.7883 55.7002 30.2275C58.4243 29.9471 60.6676 28.8655 62.4303 26.9826C64.1929 25.0998 65.0742 22.7563 65.0742 19.9521C65.0742 17.1479 63.9726 14.8846 61.7693 13.162C59.606 11.4394 56.6416 10.5781 52.876 10.5781H37.7935V11.179H38.6347C39.5561 11.179 40.3373 11.4795 40.9782 12.0804C41.6592 12.6813 41.9997 13.4224 41.9997 14.3037V42.8463C41.9997 43.7277 41.6592 44.4888 40.9782 45.1298C40.3373 45.7307 39.5561 46.0311 38.6347 46.0311H37.7935V46.632H50.1119L50.0518 46.0311H49.2706C48.6296 46.0311 48.0488 45.8909 47.528 45.6105C46.4464 44.9695 45.8855 44.0281 45.8455 42.7863V12.4409Z"/>
<path fill-rule="evenodd" clip-rule="evenodd" d="M93.3042 9.73688C89.6187 9.73688 86.2336 10.5381 83.149 12.1405C80.0644 13.7028 77.6007 15.9261 75.758 18.8104C73.9553 21.6947 73.0539 24.7393 73.0539 27.9441C73.0539 31.1088 73.5747 33.8729 74.6163 36.2365C75.6979 38.6 77.1401 40.603 78.9427 42.2454C80.7855 43.8879 82.9487 45.1698 85.4324 46.0912C87.9162 47.0126 90.7804 47.4733 94.0253 47.4733C97.2701 47.4733 100.435 46.6921 103.519 45.1298C106.604 43.5274 109.048 41.284 110.85 38.3997C112.693 35.5154 113.615 32.2505 113.615 28.6051C113.615 24.9596 112.693 21.6947 110.85 18.8104C109.048 15.9261 106.604 13.7028 103.519 12.1405C100.435 10.5381 97.0298 9.73688 93.3042 9.73688ZM93.3042 45.6706C88.8175 45.6706 85.0519 44.0882 82.0073 40.9235C79.0028 37.7187 77.5006 33.6125 77.5006 28.6051C77.5006 23.5976 79.0028 19.5115 82.0073 16.3468C85.0519 13.142 88.8175 11.5396 93.3042 11.5396C97.7909 11.5396 101.557 13.142 104.601 16.3468C107.646 19.5115 109.168 23.5976 109.168 28.6051C109.168 33.6125 107.646 37.7187 104.601 40.9235C101.557 44.0882 97.7909 45.6706 93.3042 45.6706Z"/>
<path d="M128.902 12.8015C129.663 11.7198 130.785 11.179 132.267 11.179H133.048V10.5781H119.829L119.889 11.179H120.61C121.651 11.179 122.533 11.4795 123.254 12.0804C124.015 12.6412 124.436 13.3423 124.516 14.1835V46.632C124.516 48.8353 123.815 50.9184 122.413 52.8813C121.01 54.8443 119.328 56.1262 117.365 56.7271V57.328C120.329 57.328 122.893 56.2664 125.056 54.1432C127.26 52.0601 128.361 49.5564 128.361 46.632V14.4239C128.401 13.823 128.582 13.2822 128.902 12.8015Z"/>
<path d="M141.677 45.1298C141.036 45.7307 140.235 46.0311 139.273 46.0311H138.432V46.632H162.829L166.133 38.0392H165.533C164.852 39.4813 164.171 40.6431 163.49 41.5244C162.849 42.4057 161.887 43.1668 160.605 43.8078C159.363 44.4487 157.821 44.7692 155.978 44.7692H146.544V29.5064H157C157.36 29.5465 157.701 29.6266 158.021 29.7468C158.863 30.1474 159.283 30.9085 159.283 32.0302V32.8114H159.944V24.3988H159.283V25.1799C159.283 25.901 159.063 26.5019 158.622 26.9826C158.222 27.4634 157.621 27.7037 156.82 27.7037H146.544V12.4409H159.043C159.924 12.4409 160.645 12.7414 161.206 13.3423C161.767 13.9432 162.047 14.6642 162.047 15.5055V16.4068L162.708 16.4669V9.61669C162.348 9.77693 161.547 9.97724 160.305 10.2176C159.063 10.458 157.621 10.5781 155.978 10.5781H138.432V11.179H139.273C140.235 11.179 141.056 11.4795 141.737 12.0804C142.418 12.6813 142.759 13.4224 142.759 14.3037V42.8463C142.719 43.7277 142.358 44.4888 141.677 45.1298Z"/>
<path d="M176.222 42.3656C179.788 45.7307 184.635 47.4332 190.764 47.4733C194.289 47.4733 197.534 46.7922 200.499 45.4302C203.463 44.0281 205.727 42.1253 207.289 39.7217L207.95 31.4894H207.409C207.209 34.6942 206.327 37.3782 204.765 39.5414C203.243 41.7046 201.3 43.267 198.936 44.2284C196.613 45.1498 193.889 45.6105 190.764 45.6105C187.64 45.6105 184.895 44.9094 182.532 43.5073C180.168 42.1052 178.366 40.1423 177.124 37.6185C175.882 35.0547 175.261 32.0502 175.261 28.6051C175.261 23.3172 176.643 19.1509 179.407 16.1064C182.171 13.0618 185.937 11.5396 190.704 11.5396C198.916 11.5396 203.884 14.9847 205.606 21.875H206.147L204.825 13.3423C202.982 12.2206 200.799 11.3393 198.275 10.6983C195.752 10.0574 193.248 9.73688 190.764 9.73688C184.635 9.73688 179.788 11.4194 176.222 14.7844C172.697 18.1494 170.935 22.7563 170.935 28.6051C170.935 34.4137 172.697 39.0006 176.222 42.3656Z"/>
<path d="M229.647 42.8463V12.3207H240.523C241.405 12.3207 242.126 12.6212 242.686 13.2221C243.247 13.823 243.528 14.5441 243.528 15.3853V16.3468H244.189V9.55661C242.586 10.1976 240.343 10.518 237.459 10.518H217.869C217.148 10.518 216.047 10.4379 214.564 10.2777C213.122 10.1174 212.001 9.87709 211.199 9.55661V16.3468H211.86V15.3853C211.86 14.5441 212.121 13.823 212.642 13.2221C213.202 12.6212 213.943 12.3207 214.865 12.3207H225.741V42.7863C225.701 43.6676 225.341 44.4287 224.66 45.0697C223.979 45.7106 223.157 46.0311 222.196 46.0311H221.475V46.632H233.853V46.0311H233.192C232.551 46.0311 231.97 45.8909 231.45 45.6105C230.288 45.0096 229.687 44.0882 229.647 42.8463Z"/>
<path fill-rule="evenodd" clip-rule="evenodd" d="M299.599 10.3979C295.633 6.51206 290.445 4.56915 284.036 4.56915H263.665L263.725 5.17005H264.446C265.448 5.17005 266.329 5.51056 267.09 6.19158C267.892 6.83254 268.292 7.63374 268.292 8.59517V42.2454C268.252 43.287 267.852 44.1883 267.09 44.9495C266.369 45.6706 265.488 46.0311 264.446 46.0311H263.665V46.632H284.036C290.445 46.632 295.633 44.7091 299.599 40.8634C303.605 36.9776 305.608 31.89 305.608 25.6006C305.608 19.3112 303.605 14.2436 299.599 10.3979ZM272.198 44.8293V6.37185H284.036C289.123 6.37185 293.229 8.13448 296.354 11.6597C299.519 15.185 301.101 19.832 301.101 25.6006C301.101 29.4063 300.38 32.7713 298.938 35.6957C297.536 38.58 295.533 40.8233 292.929 42.4257C290.365 44.0281 287.401 44.8293 284.036 44.8293H272.198Z"/>
</mask>
<path fill-rule="evenodd" clip-rule="evenodd" d="M315.603 31.224C316.051 30.904 316.435 30.648 316.755 30.456L320.691 27.96C328.691 22.968 332.947 20.472 333.459 20.472C333.651 20.472 333.747 20.504 333.747 20.568L333.555 20.952C331.955 23 330.419 25.816 328.947 29.4C327.475 32.92 326.515 35.064 326.067 35.832C325.619 36.6 324.755 37.496 323.475 38.52C322.259 39.544 320.947 40.056 319.539 40.056C318.131 40.056 317.043 39.672 316.275 38.904C315.507 38.072 315.123 37.24 315.123 36.408C315.123 35.576 315.251 34.936 315.507 34.488C315.827 34.04 316.211 33.816 316.659 33.816C316.915 33.816 317.075 34.104 317.139 34.68C317.267 35.256 317.619 35.544 318.195 35.544C318.835 35.544 319.347 35.288 319.731 34.776C320.179 34.264 320.403 33.72 320.403 33.144C320.403 32.12 319.763 31.608 318.483 31.608C317.203 31.608 316.083 32.088 315.123 33.048C314.227 34.008 313.779 35.16 313.779 36.504C313.779 37.848 314.323 39.032 315.411 40.056C316.499 41.08 317.907 41.592 319.635 41.592H319.731C320.435 41.592 322.099 41.208 324.723 40.44L327.411 39.096C328.179 38.712 329.267 38.104 330.675 37.272L333.843 35.256C334.611 34.808 335.891 34.008 337.683 32.856C338.445 32.3661 339.114 31.9399 339.691 31.5773C336.996 35.3894 335.649 37.8317 335.649 38.904C335.649 40.12 336.033 40.728 336.801 40.728C337.825 40.728 339.905 39.896 343.041 38.232C346.177 36.504 349.057 34.776 351.681 33.048L353.735 31.6951C352.905 33.6324 352.491 35.5874 352.491 37.56C352.491 39.48 353.003 40.44 354.027 40.44C355.115 40.44 357.387 39.16 360.843 36.6C364.363 34.04 366.219 32.76 366.411 32.76C366.667 32.76 366.795 32.824 366.795 32.952C366.539 33.336 364.683 35.544 361.227 39.576C359.627 41.496 358.091 43.352 356.619 45.144C355.723 45.848 353.291 47.64 349.323 50.52C345.355 53.464 342.091 56.056 339.531 58.296C332.491 64.44 328.971 69.848 328.971 74.52C328.971 75.416 329.643 75.864 330.987 75.864C332.331 75.864 336.811 71.928 344.427 64.056C351.979 56.248 358.283 48.92 363.339 42.072L372.075 37.56C375.346 35.8076 378.83 33.6821 382.528 31.1833L382.538 31.224L388.97 27.288C387.69 28.888 385.354 31.576 381.962 35.352L378.89 38.616C377.802 39.768 377.258 40.376 377.258 40.44C377.258 40.504 377.29 40.568 377.354 40.632C377.418 40.696 378.218 40.792 379.754 40.92C380.714 40.92 381.77 40.312 382.922 39.096C383.434 38.52 383.754 38.2 383.882 38.136C384.074 38.008 385.674 36.824 388.682 34.584C389.834 33.752 393.77 30.968 400.49 26.232C407.274 21.432 411.594 18.584 413.45 17.688C413.578 17.688 413.642 17.752 413.642 17.88C413.642 18.712 412.17 20.44 409.226 23.064C406.282 25.624 403.306 28.536 400.298 31.8C397.354 35 395.882 37.784 395.882 40.152C395.882 40.536 396.074 40.728 396.458 40.728C398.698 40.728 404.97 37.304 415.274 30.456L415.178 29.208L411.242 31.8C403.37 36.856 399.05 39.384 398.282 39.384C398.026 39.384 397.898 39.352 397.898 39.288C397.898 38.712 400.97 35.608 407.114 29.976C409.418 27.864 411.53 25.56 413.45 23.064C415.37 20.568 416.33 18.712 416.33 17.496C416.33 16.216 416.01 15.576 415.37 15.576C414.794 15.576 413.45 16.312 411.338 17.784C409.226 19.192 404.298 22.584 396.554 27.96C392.714 30.648 390.346 32.344 389.45 33.048C388.618 33.688 388.138 34.008 388.01 34.008C387.946 34.008 387.914 33.88 387.914 33.624C387.914 33.368 388.618 32.408 390.026 30.744C391.434 29.016 393.226 26.872 395.402 24.312C397.578 21.688 399.306 19.448 400.586 17.592C400.586 16.312 400.202 15.544 399.434 15.288C399.242 15.544 398.314 16.728 396.65 18.84C396.394 19.16 395.658 19.992 394.442 21.336C393.226 22.616 390.218 24.856 385.418 28.056L382.25 30.072L382.251 30.0764L379.467 31.8C371.531 36.856 367.019 39.384 365.931 39.384C366.571 38.232 372.747 30.296 384.459 15.576C384.459 14.808 384.107 14.424 383.403 14.424C374.891 14.424 367.595 16.952 361.515 22.008C358.489 24.5511 356.224 27.1266 354.72 29.7345C344.919 36.1675 339.458 39.384 338.337 39.384C338.017 39.384 337.857 39.256 337.857 39C338.561 37.4 341.377 33.752 346.305 28.056C351.297 22.36 355.073 18.232 357.633 15.672C358.017 15.16 358.209 14.808 358.209 14.616C358.209 14.36 357.953 14.2 357.441 14.136L355.233 13.944C354.721 13.944 354.241 14.2 353.793 14.712C349.441 19.128 345.313 23.96 341.409 29.208C341.403 29.2152 341.398 29.2223 341.393 29.2295L330.675 36.024C330.611 36.088 330.483 36.12 330.291 36.12C330.163 36.12 330.099 35.992 330.099 35.736C330.291 35.352 331.475 32.6 333.651 27.48C335.891 22.296 337.491 19.224 338.451 18.264C338.643 18.008 339.187 17.432 340.083 16.536C341.043 15.64 341.779 14.872 342.291 14.232C342.803 13.528 343.059 13.048 343.059 12.792C343.059 12.472 342.899 12.312 342.579 12.312C342.451 12.248 341.171 13.176 338.739 15.096C337.587 16.12 336.531 17.016 335.571 17.784L332.979 19.32C328.435 21.88 322.547 25.464 315.315 30.072L315.603 31.224ZM354.72 29.7345C354.983 29.5614 355.25 29.3858 355.521 29.208L355.617 30.456L353.735 31.6951C354.016 31.0395 354.344 30.386 354.72 29.7345ZM341.393 29.2295L341.427 29.208L341.523 30.456C341.081 30.7135 340.471 31.0872 339.691 31.5773C340.209 30.8452 340.776 30.0626 341.393 29.2295ZM375.147 22.68C372.011 26.264 369.899 28.472 368.811 29.304C368.427 29.688 366.667 31.032 363.531 33.336C362.699 33.976 361.643 34.744 360.363 35.64C359.147 36.472 358.091 37.144 357.195 37.656C356.363 38.104 355.755 38.328 355.371 38.328C354.987 38.328 354.795 38.136 354.795 37.752C354.795 33.976 357.707 29.432 363.531 24.12C369.355 18.744 374.539 16.056 379.083 16.056C379.595 16.056 379.851 16.184 379.851 16.44C379.851 17.016 378.283 19.096 375.147 22.68ZM348.459 55.032C338.091 67.448 332.523 73.656 331.755 73.656C331.563 73.656 331.467 73.464 331.467 73.08C331.467 71.032 332.171 68.888 333.579 66.648C334.923 64.408 337.483 61.624 341.259 58.296C345.035 55.032 349.099 51.832 353.451 48.696C353.579 48.696 353.643 48.76 353.643 48.888L348.459 55.032Z" fill="#102027"/>
<path d="M360.513 7.224C360.513 8.184 361.057 8.664 362.145 8.664C363.233 8.664 364.225 8.184 365.121 7.224C366.017 6.2 366.465 5.432 366.465 4.92C366.465 4.408 366.273 3.96 365.889 3.576C365.569 3.192 365.057 3 364.353 3C363.713 3 362.913 3.448 361.953 4.344C360.993 5.24 360.513 6.2 360.513 7.224Z" fill="#102027"/>
<path d="M30.9803 21.0938C31.7014 19.5716 32.0619 17.9291 32.0619 16.1665C32.0619 12.5611 30.9603 9.73688 28.757 7.69383C26.5537 5.61071 23.5292 4.56915 19.6834 4.56915H4L4.06009 5.17005H4.78117C5.78266 5.17005 6.64395 5.51056 7.36503 6.19158C8.0861 6.83254 8.50673 7.65377 8.62691 8.65526V42.2454C8.58685 43.287 8.18625 44.1883 7.42512 44.9495C6.70404 45.6706 5.82272 46.0311 4.78117 46.0311H4V46.632H17.1597V46.0311H16.3785C15.3369 46.0311 14.4356 45.6706 13.6745 44.9495C12.9534 44.1883 12.5728 43.287 12.5327 42.2454V6.37185H19.4431C21.9668 6.37185 23.9298 7.21311 25.3319 8.89562C26.734 10.5381 27.4751 12.7614 27.5552 15.5656V16.8876C27.5552 17.6086 27.435 18.3698 27.1947 19.171C26.3935 21.7348 24.8912 23.5776 22.6879 24.6992C20.2042 25.9811 17.5002 26.3016 14.5758 25.6607V26.2616C16.3785 27.1829 18.5217 27.6436 21.0054 27.6436C21.8467 27.6436 22.8482 27.4433 24.0099 27.0427C27.3349 25.9211 29.6583 23.9381 30.9803 21.0938Z" fill="#102027"/>
<path d="M45.8455 12.4409H49.0302C50.4323 12.4409 51.6742 12.4609 52.7558 12.501C55.1995 12.6212 57.1424 13.3423 58.5845 14.6642C60.0267 15.9862 60.7478 17.869 60.7478 20.3127C60.7478 22.2355 60.247 23.9982 59.2455 25.6006C58.7648 26.3617 57.8634 27.0828 56.5415 27.7638C55.58 28.2445 52.7558 28.4849 48.0688 28.4849V29.0858C49.9516 29.0858 51.9746 30.4278 54.1379 33.1118C54.2581 33.272 55.1995 34.614 56.9621 37.1378C58.7648 39.6215 59.7863 41.0236 60.0267 41.3441C61.1483 42.7061 62.3902 43.8478 63.7522 44.7692C65.5549 46.0111 68.0386 46.632 71.2034 46.632H73.0662V46.0311C71.1433 46.0311 69.4407 45.3301 67.9585 43.928C67.3977 43.4072 66.6766 42.6661 65.7953 41.7046C64.954 40.7031 63.8123 39.3211 62.3702 37.5584C60.9681 35.7958 60.2871 34.9145 60.3271 34.9145C58.5244 32.3507 56.9821 30.7883 55.7002 30.2275C58.4243 29.9471 60.6676 28.8655 62.4303 26.9826C64.1929 25.0998 65.0742 22.7563 65.0742 19.9521C65.0742 17.1479 63.9726 14.8846 61.7693 13.162C59.606 11.4394 56.6416 10.5781 52.876 10.5781H37.7935V11.179H38.6347C39.5561 11.179 40.3373 11.4795 40.9782 12.0804C41.6592 12.6813 41.9997 13.4224 41.9997 14.3037V42.8463C41.9997 43.7277 41.6592 44.4888 40.9782 45.1298C40.3373 45.7307 39.5561 46.0311 38.6347 46.0311H37.7935V46.632H50.1119L50.0518 46.0311H49.2706C48.6296 46.0311 48.0488 45.8909 47.528 45.6105C46.4464 44.9695 45.8855 44.0281 45.8455 42.7863V12.4409Z" fill="#102027"/>
<path fill-rule="evenodd" clip-rule="evenodd" d="M93.3042 9.73688C89.6187 9.73688 86.2336 10.5381 83.149 12.1405C80.0644 13.7028 77.6007 15.9261 75.758 18.8104C73.9553 21.6947 73.0539 24.7393 73.0539 27.9441C73.0539 31.1088 73.5747 33.8729 74.6163 36.2365C75.6979 38.6 77.1401 40.603 78.9427 42.2454C80.7855 43.8879 82.9487 45.1698 85.4324 46.0912C87.9162 47.0126 90.7804 47.4733 94.0253 47.4733C97.2701 47.4733 100.435 46.6921 103.519 45.1298C106.604 43.5274 109.048 41.284 110.85 38.3997C112.693 35.5154 113.615 32.2505 113.615 28.6051C113.615 24.9596 112.693 21.6947 110.85 18.8104C109.048 15.9261 106.604 13.7028 103.519 12.1405C100.435 10.5381 97.0298 9.73688 93.3042 9.73688ZM93.3042 45.6706C88.8175 45.6706 85.0519 44.0882 82.0073 40.9235C79.0028 37.7187 77.5006 33.6125 77.5006 28.6051C77.5006 23.5976 79.0028 19.5115 82.0073 16.3468C85.0519 13.142 88.8175 11.5396 93.3042 11.5396C97.7909 11.5396 101.557 13.142 104.601 16.3468C107.646 19.5115 109.168 23.5976 109.168 28.6051C109.168 33.6125 107.646 37.7187 104.601 40.9235C101.557 44.0882 97.7909 45.6706 93.3042 45.6706Z" fill="#102027"/>
<path d="M128.902 12.8015C129.663 11.7198 130.785 11.179 132.267 11.179H133.048V10.5781H119.829L119.889 11.179H120.61C121.651 11.179 122.533 11.4795 123.254 12.0804C124.015 12.6412 124.436 13.3423 124.516 14.1835V46.632C124.516 48.8353 123.815 50.9184 122.413 52.8813C121.01 54.8443 119.328 56.1262 117.365 56.7271V57.328C120.329 57.328 122.893 56.2664 125.056 54.1432C127.26 52.0601 128.361 49.5564 128.361 46.632V14.4239C128.401 13.823 128.582 13.2822 128.902 12.8015Z" fill="#102027"/>
<path d="M141.677 45.1298C141.036 45.7307 140.235 46.0311 139.273 46.0311H138.432V46.632H162.829L166.133 38.0392H165.533C164.852 39.4813 164.171 40.6431 163.49 41.5244C162.849 42.4057 161.887 43.1668 160.605 43.8078C159.363 44.4487 157.821 44.7692 155.978 44.7692H146.544V29.5064H157C157.36 29.5465 157.701 29.6266 158.021 29.7468C158.863 30.1474 159.283 30.9085 159.283 32.0302V32.8114H159.944V24.3988H159.283V25.1799C159.283 25.901 159.063 26.5019 158.622 26.9826C158.222 27.4634 157.621 27.7037 156.82 27.7037H146.544V12.4409H159.043C159.924 12.4409 160.645 12.7414 161.206 13.3423C161.767 13.9432 162.047 14.6642 162.047 15.5055V16.4068L162.708 16.4669V9.61669C162.348 9.77693 161.547 9.97724 160.305 10.2176C159.063 10.458 157.621 10.5781 155.978 10.5781H138.432V11.179H139.273C140.235 11.179 141.056 11.4795 141.737 12.0804C142.418 12.6813 142.759 13.4224 142.759 14.3037V42.8463C142.719 43.7277 142.358 44.4888 141.677 45.1298Z" fill="#102027"/>
<path d="M176.222 42.3656C179.788 45.7307 184.635 47.4332 190.764 47.4733C194.289 47.4733 197.534 46.7922 200.499 45.4302C203.463 44.0281 205.727 42.1253 207.289 39.7217L207.95 31.4894H207.409C207.209 34.6942 206.327 37.3782 204.765 39.5414C203.243 41.7046 201.3 43.267 198.936 44.2284C196.613 45.1498 193.889 45.6105 190.764 45.6105C187.64 45.6105 184.895 44.9094 182.532 43.5073C180.168 42.1052 178.366 40.1423 177.124 37.6185C175.882 35.0547 175.261 32.0502 175.261 28.6051C175.261 23.3172 176.643 19.1509 179.407 16.1064C182.171 13.0618 185.937 11.5396 190.704 11.5396C198.916 11.5396 203.884 14.9847 205.606 21.875H206.147L204.825 13.3423C202.982 12.2206 200.799 11.3393 198.275 10.6983C195.752 10.0574 193.248 9.73688 190.764 9.73688C184.635 9.73688 179.788 11.4194 176.222 14.7844C172.697 18.1494 170.935 22.7563 170.935 28.6051C170.935 34.4137 172.697 39.0006 176.222 42.3656Z" fill="#102027"/>
<path d="M229.647 42.8463V12.3207H240.523C241.405 12.3207 242.126 12.6212 242.686 13.2221C243.247 13.823 243.528 14.5441 243.528 15.3853V16.3468H244.189V9.55661C242.586 10.1976 240.343 10.518 237.459 10.518H217.869C217.148 10.518 216.047 10.4379 214.564 10.2777C213.122 10.1174 212.001 9.87709 211.199 9.55661V16.3468H211.86V15.3853C211.86 14.5441 212.121 13.823 212.642 13.2221C213.202 12.6212 213.943 12.3207 214.865 12.3207H225.741V42.7863C225.701 43.6676 225.341 44.4287 224.66 45.0697C223.979 45.7106 223.157 46.0311 222.196 46.0311H221.475V46.632H233.853V46.0311H233.192C232.551 46.0311 231.97 45.8909 231.45 45.6105C230.288 45.0096 229.687 44.0882 229.647 42.8463Z" fill="#102027"/>
<path fill-rule="evenodd" clip-rule="evenodd" d="M299.599 10.3979C295.633 6.51206 290.445 4.56915 284.036 4.56915H263.665L263.725 5.17005H264.446C265.448 5.17005 266.329 5.51056 267.09 6.19158C267.892 6.83254 268.292 7.63374 268.292 8.59517V42.2454C268.252 43.287 267.852 44.1883 267.09 44.9495C266.369 45.6706 265.488 46.0311 264.446 46.0311H263.665V46.632H284.036C290.445 46.632 295.633 44.7091 299.599 40.8634C303.605 36.9776 305.608 31.89 305.608 25.6006C305.608 19.3112 303.605 14.2436 299.599 10.3979ZM272.198 44.8293V6.37185H284.036C289.123 6.37185 293.229 8.13448 296.354 11.6597C299.519 15.185 301.101 19.832 301.101 25.6006C301.101 29.4063 300.38 32.7713 298.938 35.6957C297.536 38.58 295.533 40.8233 292.929 42.4257C290.365 44.0281 287.401 44.8293 284.036 44.8293H272.198Z" fill="#102027"/>
<path d="M316.755 30.456L317.269 31.3135L317.28 31.3071L317.29 31.3005L316.755 30.456ZM315.603 31.224L314.632 31.4665L314.989 32.8914L316.184 32.0377L315.603 31.224ZM320.691 27.96L320.161 27.1116L320.155 27.1155L320.691 27.96ZM333.747 20.568L334.641 21.0152L334.747 20.8041V20.568H333.747ZM333.555 20.952L334.343 21.5676L334.404 21.4887L334.449 21.3992L333.555 20.952ZM328.947 29.4L329.869 29.7858L329.872 29.7799L328.947 29.4ZM326.067 35.832L326.93 36.3359L326.93 36.3359L326.067 35.832ZM323.475 38.52L322.85 37.7391L322.84 37.747L322.83 37.7551L323.475 38.52ZM316.275 38.904L315.54 39.5823L315.553 39.597L315.567 39.6111L316.275 38.904ZM315.507 34.488L314.693 33.9068L314.663 33.9479L314.638 33.9918L315.507 34.488ZM317.139 34.68L316.145 34.7904L316.151 34.8442L316.162 34.897L317.139 34.68ZM319.731 34.776L318.978 34.1175L318.953 34.1459L318.931 34.176L319.731 34.776ZM315.123 33.048L314.415 32.3409L314.403 32.3531L314.392 32.3657L315.123 33.048ZM315.411 40.056L314.725 40.7842L314.725 40.7842L315.411 40.056ZM324.723 40.44L325.003 41.3997L325.09 41.3745L325.17 41.3344L324.723 40.44ZM327.411 39.096L326.963 38.2016L326.963 38.2016L327.411 39.096ZM330.675 37.272L331.183 38.1329L331.198 38.1245L331.211 38.1157L330.675 37.272ZM333.843 35.256L333.339 34.3922L333.322 34.402L333.306 34.4123L333.843 35.256ZM337.683 32.856L337.142 32.0148L337.142 32.0148L337.683 32.856ZM343.041 38.232L343.509 39.1154L343.516 39.1117L343.523 39.1078L343.041 38.232ZM351.681 33.048L352.231 33.8832L352.231 33.8832L351.681 33.048ZM360.843 36.6L360.254 35.7912L360.247 35.7964L360.843 36.6ZM366.795 32.952L367.627 33.5067L367.795 33.2548V32.952H366.795ZM361.227 39.576L360.467 38.9252L360.458 38.9358L361.227 39.576ZM356.619 45.144L357.236 45.9303L357.322 45.863L357.391 45.7787L356.619 45.144ZM349.323 50.52L348.735 49.7107L348.727 49.7169L349.323 50.52ZM339.531 58.296L340.188 59.0494L340.189 59.0486L339.531 58.296ZM344.427 64.056L345.145 64.7513L345.145 64.7512L344.427 64.056ZM363.339 42.072L362.88 41.1835L362.673 41.2905L362.534 41.478L363.339 42.072ZM372.075 37.56L372.533 38.4485L372.54 38.445L372.547 38.4415L372.075 37.56ZM382.528 31.1833L383.498 30.9411L383.152 29.5547L381.968 30.3548L382.528 31.1833ZM382.538 31.224L381.568 31.4662L381.898 32.7881L383.06 32.077L382.538 31.224ZM388.97 27.288L389.751 27.9127L388.448 26.435L388.97 27.288ZM381.962 35.352L382.69 36.0374L382.698 36.0289L382.706 36.0203L381.962 35.352ZM378.89 38.616L379.617 39.3026L379.618 39.3014L378.89 38.616ZM379.754 40.92L379.671 41.9165L379.712 41.92H379.754V40.92ZM382.922 39.096L383.648 39.7837L383.659 39.7722L383.669 39.7604L382.922 39.096ZM383.882 38.136L384.329 39.0304L384.385 39.0026L384.437 38.9681L383.882 38.136ZM388.682 34.584L388.096 33.7733L388.09 33.7776L388.085 33.782L388.682 34.584ZM400.49 26.232L401.066 27.0494L401.067 27.0483L400.49 26.232ZM413.45 17.688V16.688H413.221L413.015 16.7875L413.45 17.688ZM409.226 23.064L409.882 23.8187L409.891 23.8105L409.226 23.064ZM400.298 31.8L399.562 31.1223L399.562 31.1229L400.298 31.8ZM415.274 30.456L415.827 31.2888L416.316 30.9642L416.271 30.3793L415.274 30.456ZM415.178 29.208L416.175 29.1313L416.045 27.4397L414.628 28.3728L415.178 29.208ZM411.242 31.8L411.782 32.6415L411.792 32.6352L411.242 31.8ZM407.114 29.976L406.438 29.2388L406.438 29.2388L407.114 29.976ZM413.45 23.064L412.657 22.4543L412.657 22.4543L413.45 23.064ZM411.338 17.784L411.893 18.6161L411.901 18.6103L411.91 18.6044L411.338 17.784ZM396.554 27.96L395.984 27.1385L395.98 27.1408L396.554 27.96ZM389.45 33.048L390.06 33.8407L390.068 33.8343L389.45 33.048ZM390.026 30.744L390.789 31.3899L390.795 31.3829L390.801 31.3757L390.026 30.744ZM395.402 24.312L396.164 24.9597L396.172 24.9503L395.402 24.312ZM400.586 17.592L401.409 18.1597L401.586 17.9034V17.592H400.586ZM399.434 15.288L399.75 14.3393L399.066 14.1114L398.634 14.688L399.434 15.288ZM396.65 18.84L397.431 19.4647L397.435 19.4589L396.65 18.84ZM394.442 21.336L395.167 22.0248L395.175 22.0159L395.183 22.0069L394.442 21.336ZM385.418 28.056L385.955 28.8997L385.964 28.894L385.973 28.8881L385.418 28.056ZM382.25 30.072L381.713 29.2283L381.104 29.6161L381.28 30.3164L382.25 30.072ZM382.251 30.0764L382.777 30.9266L383.399 30.5415L383.221 29.8319L382.251 30.0764ZM379.467 31.8L378.94 30.9497L378.929 30.9566L379.467 31.8ZM365.931 39.384L365.056 38.8984L364.231 40.384H365.931V39.384ZM384.459 15.576L385.241 16.1986L385.459 15.9253V15.576H384.459ZM361.515 22.008L360.875 21.2391L360.871 21.2425L361.515 22.008ZM337.857 39L336.941 38.5973L336.857 38.7897V39H337.857ZM346.305 28.056L345.553 27.3969L345.548 27.4017L346.305 28.056ZM357.633 15.672L358.34 16.3791L358.39 16.3289L358.433 16.272L357.633 15.672ZM357.441 14.136L357.565 13.1437L357.546 13.1414L357.527 13.1398L357.441 14.136ZM355.233 13.944L355.319 12.9478L355.276 12.944H355.233V13.944ZM353.793 14.712L354.505 15.4139L354.526 15.3928L354.545 15.3705L353.793 14.712ZM341.409 29.208L340.606 28.6111L340.605 28.6131L341.409 29.208ZM330.675 36.024L330.139 35.1794L330.046 35.2387L329.967 35.3169L330.675 36.024ZM330.099 35.736L329.204 35.2888L329.099 35.4999V35.736H330.099ZM333.651 27.48L332.733 27.0833L332.73 27.0889L333.651 27.48ZM338.451 18.264L339.158 18.9711L339.208 18.9208L339.251 18.864L338.451 18.264ZM340.083 16.536L339.4 15.8049L339.388 15.8167L339.375 15.8289L340.083 16.536ZM342.291 14.232L343.071 14.8567L343.086 14.8387L343.099 14.8202L342.291 14.232ZM342.579 12.312L342.131 13.2064L342.343 13.312H342.579V12.312ZM338.739 15.096L338.119 14.3111L338.096 14.3292L338.074 14.3486L338.739 15.096ZM335.571 17.784L336.08 18.6443L336.141 18.6086L336.195 18.5649L335.571 17.784ZM332.979 19.32L333.469 20.1912L333.479 20.1859L333.488 20.1803L332.979 19.32ZM315.315 30.072L314.777 29.2286L314.17 29.6157L314.344 30.3145L315.315 30.072ZM355.521 29.208L356.518 29.1313L356.388 27.4399L354.971 28.3728L355.521 29.208ZM355.617 30.456L356.167 31.2912L356.659 30.967L356.614 30.3793L355.617 30.456ZM341.427 29.208L342.424 29.1313L342.296 27.4727L340.891 28.3634L341.427 29.208ZM341.523 30.456L342.026 31.3198L342.568 31.004L342.52 30.3793L341.523 30.456ZM365.121 7.224L365.852 7.90632L365.863 7.89458L365.873 7.8825L365.121 7.224ZM365.889 3.576L365.12 4.21616L365.149 4.25102L365.181 4.28311L365.889 3.576ZM361.953 4.344L362.635 5.07506L362.635 5.07505L361.953 4.344ZM368.811 29.304L368.203 28.5096L368.15 28.55L368.104 28.5969L368.811 29.304ZM375.147 22.68L375.899 23.3385L375.899 23.3385L375.147 22.68ZM363.531 33.336L362.939 32.5301L362.93 32.5366L362.921 32.5434L363.531 33.336ZM360.363 35.64L360.927 36.4653L360.936 36.4592L360.363 35.64ZM357.195 37.656L357.669 38.5365L357.68 38.5305L357.691 38.5242L357.195 37.656ZM363.531 24.12L364.204 24.8588L364.209 24.8548L363.531 24.12ZM348.459 55.032L347.694 54.3871L347.691 54.391L348.459 55.032ZM333.579 66.648L334.425 67.1802L334.431 67.1714L334.436 67.1625L333.579 66.648ZM341.259 58.296L340.605 57.5394L340.597 57.5458L341.259 58.296ZM353.451 48.696V47.696H353.128L352.866 47.8847L353.451 48.696ZM353.643 48.888L354.407 49.5329L354.643 49.2535V48.888H353.643ZM30.9803 21.0938L30.0765 20.6657L30.0735 20.6724L30.9803 21.0938ZM28.757 7.69383L28.0699 8.42051L28.077 8.42709L28.757 7.69383ZM4 4.56915V3.56915H2.89501L3.00496 4.66866L4 4.56915ZM4.06009 5.17005L3.06505 5.26956L3.1551 6.17005H4.06009V5.17005ZM7.36503 6.19158L6.6784 6.91859L6.68938 6.92896L6.70066 6.93899L7.36503 6.19158ZM8.62691 8.65526H9.62691V8.59547L9.61979 8.53612L8.62691 8.65526ZM8.62691 42.2454L9.62617 42.2839L9.62691 42.2647V42.2454H8.62691ZM7.42512 44.9495L8.13222 45.6566L8.13222 45.6566L7.42512 44.9495ZM4 46.0311V45.0311H3V46.0311H4ZM4 46.632H3V47.632H4V46.632ZM17.1597 46.632V47.632H18.1597V46.632H17.1597ZM17.1597 46.0311H18.1597V45.0311H17.1597V46.0311ZM13.6745 44.9495L12.9485 45.6372L12.9671 45.6569L12.9867 45.6754L13.6745 44.9495ZM12.5327 42.2454H11.5327V42.2647L11.5335 42.2839L12.5327 42.2454ZM12.5327 6.37185V5.37185H11.5327V6.37185H12.5327ZM25.3319 8.89562L24.5636 9.53585L24.5713 9.54488L25.3319 8.89562ZM27.5552 15.5656H28.5552V15.5513L28.5548 15.537L27.5552 15.5656ZM27.1947 19.171L28.1492 19.4693L28.1525 19.4583L27.1947 19.171ZM22.6879 24.6992L22.2342 23.8081L22.2293 23.8106L22.6879 24.6992ZM14.5758 25.6607L14.7899 24.6839L13.5758 24.4178V25.6607H14.5758ZM14.5758 26.2616H13.5758V26.8735L14.1207 27.152L14.5758 26.2616ZM24.0099 27.0427L23.6902 26.0952L23.6839 26.0974L24.0099 27.0427ZM45.8455 12.4409V11.4409H44.8455V12.4409H45.8455ZM52.7558 12.501L52.8049 11.5021L52.7928 11.5017L52.7558 12.501ZM58.5845 14.6642L59.2602 13.9271L59.2602 13.9271L58.5845 14.6642ZM59.2455 25.6006L60.091 26.1346L60.0935 26.1306L59.2455 25.6006ZM56.5415 27.7638L56.9887 28.6583L56.9994 28.6528L56.5415 27.7638ZM48.0688 28.4849V27.4849H47.0688V28.4849H48.0688ZM48.0688 29.0858H47.0688V30.0858H48.0688V29.0858ZM54.1379 33.1118L54.9379 32.5118L54.9274 32.4979L54.9165 32.4843L54.1379 33.1118ZM56.9621 37.1378L56.1423 37.7104L56.1475 37.7179L56.1528 37.7252L56.9621 37.1378ZM60.0267 41.3441L59.2267 41.9441L59.2403 41.9623L59.2547 41.9798L60.0267 41.3441ZM63.7522 44.7692L64.3196 43.9457L64.3126 43.9409L63.7522 44.7692ZM73.0662 46.632V47.632H74.0662V46.632H73.0662ZM73.0662 46.0311H74.0662V45.0311H73.0662V46.0311ZM67.9585 43.928L68.6458 43.2015L68.639 43.1952L67.9585 43.928ZM65.7953 41.7046L65.0296 42.3478L65.0435 42.3644L65.0581 42.3804L65.7953 41.7046ZM62.3702 37.5584L61.5875 38.181L61.5962 38.1917L62.3702 37.5584ZM60.3271 34.9145V35.9145H62.2527L61.1452 34.3393L60.3271 34.9145ZM55.7002 30.2275L55.5978 29.2327L51.8204 29.6216L55.2994 31.1436L55.7002 30.2275ZM62.4303 26.9826L63.1603 27.6661L63.1603 27.6661L62.4303 26.9826ZM61.7693 13.162L61.1463 13.9443L61.1534 13.9498L61.7693 13.162ZM37.7935 10.5781V9.57813H36.7935V10.5781H37.7935ZM37.7935 11.179H36.7935V12.179H37.7935V11.179ZM40.9782 12.0804L40.2943 12.8099L40.3053 12.8202L40.3166 12.8302L40.9782 12.0804ZM40.9782 45.1298L41.6622 45.8593L41.6636 45.858L40.9782 45.1298ZM37.7935 46.0311V45.0311H36.7935V46.0311H37.7935ZM37.7935 46.632H36.7935V47.632H37.7935V46.632ZM50.1119 46.632V47.632H51.2168L51.1069 46.5325L50.1119 46.632ZM50.0518 46.0311L51.0468 45.9316L50.9568 45.0311H50.0518V46.0311ZM47.528 45.6105L47.0182 46.4708L47.0358 46.4812L47.0539 46.4909L47.528 45.6105ZM45.8455 42.7863H44.8455V42.8024L44.846 42.8185L45.8455 42.7863ZM83.149 12.1405L83.6009 13.0326L83.61 13.0279L83.149 12.1405ZM75.758 18.8104L74.9152 18.272L74.91 18.2804L75.758 18.8104ZM74.6163 36.2365L73.7011 36.6398L73.707 36.6526L74.6163 36.2365ZM78.9427 42.2454L78.2692 42.9847L78.2774 42.992L78.9427 42.2454ZM103.519 45.1298L103.971 46.0219L103.98 46.0172L103.519 45.1298ZM110.85 38.3997L110.008 37.8613L110.002 37.8697L110.85 38.3997ZM110.85 18.8104L110.002 19.3405L110.008 19.3488L110.85 18.8104ZM103.519 12.1405L103.058 13.0279L103.068 13.0326L103.519 12.1405ZM82.0073 40.9235L81.2777 41.6075L81.2867 41.6168L82.0073 40.9235ZM82.0073 16.3468L81.2823 15.658L81.2821 15.6582L82.0073 16.3468ZM104.601 16.3468L103.876 17.0355L103.88 17.04L104.601 16.3468ZM104.601 40.9235L105.322 41.6168L105.326 41.6122L104.601 40.9235ZM128.902 12.8015L128.084 12.226L128.077 12.2363L128.07 12.2468L128.902 12.8015ZM133.048 11.179V12.179H134.048V11.179H133.048ZM133.048 10.5781H134.048V9.57813H133.048V10.5781ZM119.829 10.5781V9.57813H118.724L118.834 10.6776L119.829 10.5781ZM119.889 11.179L118.894 11.2785L118.984 12.179H119.889V11.179ZM123.254 12.0804L122.614 12.8486L122.637 12.8677L122.661 12.8854L123.254 12.0804ZM124.516 14.1835H125.516V14.136L125.511 14.0887L124.516 14.1835ZM122.413 52.8813L121.599 52.3001L121.599 52.3001L122.413 52.8813ZM117.365 56.7271L117.072 55.7709L116.365 55.9874V56.7271H117.365ZM117.365 57.328H116.365V58.328H117.365V57.328ZM125.056 54.1432L124.369 53.4166L124.363 53.423L124.356 53.4295L125.056 54.1432ZM128.361 14.4239L127.364 14.3574L127.361 14.3906V14.4239H128.361ZM141.677 45.1298L142.361 45.8593L142.362 45.858L141.677 45.1298ZM138.432 46.0311V45.0311H137.432V46.0311H138.432ZM138.432 46.632H137.432V47.632H138.432V46.632ZM162.829 46.632V47.632H163.515L163.762 46.991L162.829 46.632ZM166.133 38.0392L167.067 38.3981L167.59 37.0392H166.133V38.0392ZM165.533 38.0392V37.0392H164.899L164.628 37.6121L165.533 38.0392ZM163.49 41.5244L162.698 40.9129L162.689 40.9244L162.681 40.9362L163.49 41.5244ZM160.605 43.8078L160.158 42.9133L160.147 42.9192L160.605 43.8078ZM146.544 44.7692H145.544V45.7692H146.544V44.7692ZM146.544 29.5064V28.5064H145.544V29.5064H146.544ZM157 29.5064L157.11 28.5125L157.055 28.5064H157V29.5064ZM158.021 29.7468L158.451 28.8439L158.413 28.8255L158.372 28.8104L158.021 29.7468ZM159.283 32.8114H158.283V33.8114H159.283V32.8114ZM159.944 32.8114V33.8114H160.944V32.8114H159.944ZM159.944 24.3988H160.944V23.3988H159.944V24.3988ZM159.283 24.3988V23.3988H158.283V24.3988H159.283ZM158.622 26.9826L157.885 26.3069L157.869 26.3243L157.854 26.3425L158.622 26.9826ZM146.544 27.7037H145.544V28.7037H146.544V27.7037ZM146.544 12.4409V11.4409H145.544V12.4409H146.544ZM161.206 13.3423L161.937 12.6599L161.937 12.6599L161.206 13.3423ZM162.047 16.4068H161.047V17.3201L161.957 17.4027L162.047 16.4068ZM162.708 16.4669L162.618 17.4628L163.708 17.562V16.4669H162.708ZM162.708 9.61669H163.708V8.07792L162.302 8.70289L162.708 9.61669ZM160.305 10.2176L160.495 11.1994L160.495 11.1994L160.305 10.2176ZM138.432 10.5781V9.57813H137.432V10.5781H138.432ZM138.432 11.179H137.432V12.179H138.432V11.179ZM141.737 12.0804L142.399 11.3305L142.399 11.3305L141.737 12.0804ZM142.759 42.8463L143.758 42.8917L143.759 42.8691V42.8463H142.759ZM190.764 47.4733L190.758 48.4733H190.764V47.4733ZM176.222 42.3656L175.532 43.089L175.536 43.0929L176.222 42.3656ZM200.499 45.4302L200.916 46.3389L200.926 46.3342L200.499 45.4302ZM207.289 39.7217L208.127 40.2667L208.265 40.0542L208.286 39.8017L207.289 39.7217ZM207.95 31.4894L208.947 31.5694L209.033 30.4894H207.95V31.4894ZM207.409 31.4894V30.4894H206.47L206.411 31.427L207.409 31.4894ZM204.765 39.5414L203.954 38.9559L203.947 38.9659L204.765 39.5414ZM198.936 44.2284L199.305 45.158L199.313 45.1547L198.936 44.2284ZM182.532 43.5073L183.042 42.6473L183.042 42.6473L182.532 43.5073ZM177.124 37.6185L176.224 38.0545L176.227 38.06L177.124 37.6185ZM179.407 16.1064L180.148 16.7786L180.148 16.7786L179.407 16.1064ZM205.606 21.875L204.636 22.1175L204.826 22.875H205.606V21.875ZM206.147 21.875V22.875H207.314L207.135 21.7219L206.147 21.875ZM204.825 13.3423L205.813 13.1892L205.742 12.7298L205.345 12.4881L204.825 13.3423ZM198.275 10.6983L198.029 11.6675L198.029 11.6675L198.275 10.6983ZM176.222 14.7844L175.536 14.0572L175.532 14.0611L176.222 14.7844ZM229.647 12.3207V11.3207H228.647V12.3207H229.647ZM229.647 42.8463H228.647V42.8625L228.647 42.8786L229.647 42.8463ZM242.686 13.2221L243.418 12.5398L243.418 12.5398L242.686 13.2221ZM243.528 16.3468H242.528V17.3468H243.528V16.3468ZM244.189 16.3468V17.3468H245.189V16.3468H244.189ZM244.189 9.55661H245.189V8.07957L243.817 8.62813L244.189 9.55661ZM214.564 10.2777L214.454 11.2716L214.457 11.2719L214.564 10.2777ZM211.199 9.55661L211.571 8.62813L210.199 8.07957V9.55661H211.199ZM211.199 16.3468H210.199V17.3468H211.199V16.3468ZM211.86 16.3468V17.3468H212.86V16.3468H211.86ZM212.642 13.2221L211.91 12.5398L211.898 12.5532L211.886 12.5671L212.642 13.2221ZM225.741 12.3207H226.741V11.3207H225.741V12.3207ZM225.741 42.7863L226.74 42.8317L226.741 42.809V42.7863H225.741ZM221.475 46.0311V45.0311H220.475V46.0311H221.475ZM221.475 46.632H220.475V47.632H221.475V46.632ZM233.853 46.632V47.632H234.853V46.632H233.853ZM233.853 46.0311H234.853V45.0311H233.853V46.0311ZM231.45 45.6105L231.924 44.73L231.916 44.7261L231.909 44.7223L231.45 45.6105ZM299.599 10.3979L298.899 11.1122L298.906 11.1192L299.599 10.3979ZM263.665 4.56915V3.56915H262.56L262.67 4.66866L263.665 4.56915ZM263.725 5.17005L262.73 5.26955L262.82 6.17005H263.725V5.17005ZM267.09 6.19158L266.424 6.93682L266.444 6.95522L266.466 6.97245L267.09 6.19158ZM268.292 42.2454L269.291 42.2839L269.292 42.2647V42.2454H268.292ZM267.09 44.9495L266.383 44.2424L266.383 44.2424L267.09 44.9495ZM263.665 46.0311V45.0311H262.665V46.0311H263.665ZM263.665 46.632H262.665V47.632H263.665V46.632ZM299.599 40.8634L300.295 41.5813L300.295 41.5812L299.599 40.8634ZM272.198 6.37185V5.37185H271.198V6.37185H272.198ZM272.198 44.8293H271.198V45.8293H272.198V44.8293ZM296.354 11.6597L295.606 12.3231L295.61 12.3278L296.354 11.6597ZM298.938 35.6957L298.041 35.2534L298.039 35.2585L298.938 35.6957ZM292.929 42.4257L292.405 41.574L292.399 41.5777L292.929 42.4257ZM316.24 29.5985C315.889 29.809 315.482 30.0813 315.021 30.4103L316.184 32.0377C316.619 31.7267 316.98 31.487 317.269 31.3135L316.24 29.5985ZM320.155 27.1155L316.219 29.6115L317.29 31.3005L321.226 28.8045L320.155 27.1155ZM333.459 19.472C333.265 19.472 333.097 19.5225 333.015 19.5484C332.911 19.5816 332.802 19.6247 332.695 19.6706C332.481 19.7631 332.216 19.8933 331.909 20.0541C331.291 20.3772 330.445 20.8548 329.377 21.4814C327.237 22.7365 324.163 24.6143 320.161 27.1116L321.22 28.8084C325.218 26.3137 328.273 24.4475 330.388 23.2066C331.448 22.5852 332.262 22.1268 332.836 21.8259C333.125 21.6747 333.339 21.5709 333.487 21.5074C333.561 21.4753 333.604 21.4599 333.622 21.4541C333.663 21.441 333.588 21.472 333.459 21.472V19.472ZM334.747 20.568C334.747 19.8718 334.17 19.6069 333.991 19.5473C333.786 19.4792 333.584 19.472 333.459 19.472V21.472C333.525 21.472 333.467 21.4808 333.358 21.4447C333.301 21.4257 333.16 21.3714 333.021 21.2331C332.859 21.0701 332.747 20.8345 332.747 20.568H334.747ZM334.449 21.3992L334.641 21.0152L332.852 20.1208L332.66 20.5048L334.449 21.3992ZM329.872 29.7799C331.324 26.2433 332.819 23.5178 334.343 21.5676L332.767 20.3364C331.09 22.4822 329.513 25.3887 328.022 29.0201L329.872 29.7799ZM326.93 36.3359C327.42 35.4972 328.408 33.28 329.869 29.7858L328.024 29.0142C326.541 32.56 325.61 34.6308 325.203 35.3281L326.93 36.3359ZM324.099 39.3009C325.408 38.2537 326.388 37.2651 326.93 36.3359L325.203 35.3281C324.849 35.9349 324.101 36.7383 322.85 37.7391L324.099 39.3009ZM319.539 41.056C321.213 41.056 322.747 40.4399 324.119 39.2849L322.83 37.7551C321.77 38.6481 320.68 39.056 319.539 39.056V41.056ZM315.567 39.6111C316.574 40.6176 317.947 41.056 319.539 41.056V39.056C318.314 39.056 317.511 38.7264 316.982 38.1969L315.567 39.6111ZM314.123 36.408C314.123 37.5703 314.664 38.6331 315.54 39.5823L317.009 38.2257C316.35 37.5109 316.123 36.9097 316.123 36.408H314.123ZM314.638 33.9918C314.258 34.6567 314.123 35.4978 314.123 36.408H316.123C316.123 35.6543 316.243 35.2153 316.375 34.9842L314.638 33.9918ZM316.659 32.816C315.813 32.816 315.152 33.2637 314.693 33.9068L316.32 35.0692C316.501 34.8163 316.609 34.816 316.659 34.816V32.816ZM318.132 34.5696C318.095 34.2346 318.021 33.8628 317.845 33.5464C317.647 33.1907 317.257 32.816 316.659 32.816V34.816C316.522 34.816 316.381 34.7734 316.263 34.6922C316.157 34.6186 316.109 34.5407 316.096 34.5176C316.084 34.4949 316.091 34.5 316.105 34.553C316.118 34.6035 316.133 34.6807 316.145 34.7904L318.132 34.5696ZM318.195 34.544C318.133 34.544 318.105 34.5362 318.101 34.5349C318.099 34.5344 318.114 34.5391 318.132 34.554C318.15 34.5687 318.155 34.5795 318.151 34.5723C318.146 34.563 318.13 34.5307 318.115 34.463L316.162 34.897C316.26 35.3382 316.47 35.7786 316.865 36.102C317.263 36.4275 317.739 36.544 318.195 36.544V34.544ZM318.931 34.176C318.735 34.4362 318.52 34.544 318.195 34.544V36.544C319.149 36.544 319.958 36.1398 320.531 35.376L318.931 34.176ZM319.403 33.144C319.403 33.4352 319.297 33.753 318.978 34.1175L320.483 35.4345C321.06 34.775 321.403 34.0048 321.403 33.144H319.403ZM318.483 32.608C319.016 32.608 319.231 32.719 319.298 32.7729C319.323 32.7926 319.403 32.8527 319.403 33.144H321.403C321.403 32.4113 321.163 31.7034 320.547 31.2111C319.975 30.753 319.229 30.608 318.483 30.608V32.608ZM315.83 33.7551C316.615 32.97 317.485 32.608 318.483 32.608V30.608C316.92 30.608 315.55 31.206 314.415 32.3409L315.83 33.7551ZM314.779 36.504C314.779 35.4067 315.135 34.5004 315.854 33.7303L314.392 32.3657C313.318 33.5156 312.779 34.9133 312.779 36.504H314.779ZM316.096 39.3278C315.184 38.4694 314.779 37.54 314.779 36.504H312.779C312.779 38.156 313.461 39.5946 314.725 40.7842L316.096 39.3278ZM319.635 40.592C318.119 40.592 316.969 40.15 316.096 39.3278L314.725 40.7842C316.028 42.01 317.695 42.592 319.635 42.592V40.592ZM319.731 40.592H319.635V42.592H319.731V40.592ZM324.442 39.4803C323.139 39.8616 322.087 40.1437 321.282 40.3296C320.449 40.5219 319.957 40.592 319.731 40.592V42.592C320.209 42.592 320.9 42.4702 321.731 42.2784C322.59 42.0803 323.683 41.7864 325.003 41.3997L324.442 39.4803ZM326.963 38.2016L324.275 39.5456L325.17 41.3344L327.858 39.9904L326.963 38.2016ZM330.166 36.4111C328.763 37.2398 327.699 37.8335 326.963 38.2016L327.858 39.9904C328.658 39.5905 329.77 38.9683 331.183 38.1329L330.166 36.4111ZM333.306 34.4123L330.138 36.4283L331.211 38.1157L334.379 36.0997L333.306 34.4123ZM337.142 32.0148C335.35 33.1668 334.086 33.9562 333.339 34.3922L334.346 36.1198C335.135 35.6598 336.431 34.8492 338.223 33.6972L337.142 32.0148ZM339.159 30.7306C338.578 31.0955 337.906 31.5236 337.142 32.0148L338.223 33.6972C338.983 33.2086 339.65 32.7842 340.223 32.4239L339.159 30.7306ZM338.874 31C337.518 32.9192 336.483 34.5171 335.784 35.785C335.434 36.4186 335.158 36.9875 334.968 37.4849C334.783 37.9656 334.649 38.4542 334.649 38.904H336.649C336.649 38.8176 336.682 38.5989 336.835 38.2009C336.981 37.8197 337.211 37.3387 337.535 36.7512C338.183 35.5768 339.169 34.0476 340.508 32.1545L338.874 31ZM334.649 38.904C334.649 39.585 334.75 40.2664 335.091 40.806C335.481 41.423 336.102 41.728 336.801 41.728V39.728C336.742 39.728 336.74 39.7172 336.763 39.7296C336.79 39.7436 336.795 39.7579 336.782 39.738C336.739 39.6696 336.649 39.439 336.649 38.904H334.649ZM336.801 41.728C337.519 41.728 338.449 41.4529 339.5 41.0325C340.587 40.5978 341.926 39.9557 343.509 39.1154L342.572 37.3487C341.02 38.1723 339.751 38.7782 338.757 39.1755C337.728 39.5871 337.106 39.728 336.801 39.728V41.728ZM343.523 39.1078C346.679 37.3689 349.582 35.6274 352.231 33.8832L351.131 32.2128C348.531 33.9246 345.674 35.6391 342.558 37.3562L343.523 39.1078ZM352.231 33.8832L354.285 32.5303L353.185 30.8599L351.131 32.2128L352.231 33.8832ZM353.491 37.56C353.491 35.7318 353.874 33.9103 354.654 32.0887L352.816 31.3014C351.937 33.3545 351.491 35.443 351.491 37.56H353.491ZM354.027 39.44C353.933 39.44 353.898 39.4201 353.885 39.412C353.868 39.4019 353.819 39.3661 353.757 39.2494C353.617 38.9863 353.491 38.4638 353.491 37.56H351.491C351.491 38.5762 351.621 39.4937 351.992 40.1906C352.186 40.554 352.457 40.8782 352.825 41.108C353.196 41.3399 353.608 41.44 354.027 41.44V39.44ZM360.247 35.7964C358.534 37.0654 357.14 37.9979 356.056 38.6088C355.514 38.9142 355.067 39.1291 354.709 39.2655C354.338 39.4067 354.123 39.44 354.027 39.44V41.44C354.474 41.44 354.951 41.3133 355.421 41.1345C355.903 40.9509 356.444 40.6858 357.037 40.3512C358.225 39.6821 359.695 38.6946 361.438 37.4036L360.247 35.7964ZM366.411 31.76C366.191 31.76 366.016 31.8335 365.984 31.8465C365.913 31.8746 365.848 31.9072 365.795 31.9351C365.687 31.9921 365.56 32.0671 365.425 32.152C365.149 32.3241 364.775 32.5742 364.307 32.8968C363.368 33.5441 362.016 34.51 360.254 35.7913L361.431 37.4087C363.189 36.13 364.525 35.1759 365.442 34.5432C365.903 34.2258 366.248 33.9959 366.485 33.848C366.605 33.7729 366.683 33.728 366.726 33.7049C366.749 33.6928 366.747 33.6954 366.726 33.7035C366.716 33.7076 366.688 33.7183 366.649 33.7291C366.617 33.7377 366.529 33.76 366.411 33.76V31.76ZM367.795 32.952C367.795 32.745 367.74 32.5193 367.603 32.3133C367.469 32.1136 367.296 31.9889 367.146 31.9136C366.873 31.7771 366.59 31.76 366.411 31.76V33.76C366.488 33.76 366.396 33.7749 366.251 33.7024C366.165 33.6591 366.04 33.5744 365.939 33.4227C365.833 33.2647 365.795 33.095 365.795 32.952H367.795ZM361.986 40.2268C363.715 38.21 365.045 36.6472 365.976 35.5395C366.881 34.4631 367.459 33.758 367.627 33.5067L365.963 32.3973C365.962 32.3975 365.963 32.3972 365.962 32.3974C365.962 32.3976 365.963 32.3973 365.962 32.3976C365.962 32.3978 365.962 32.398 365.962 32.3984C365.961 32.399 365.961 32.4 365.96 32.4013C365.958 32.4038 365.956 32.4073 365.952 32.4118C365.946 32.4209 365.937 32.4328 365.926 32.4479C365.903 32.4783 365.873 32.5173 365.835 32.566C365.759 32.6634 365.657 32.791 365.527 32.9503C365.268 33.2686 364.908 33.7021 364.445 34.2525C363.52 35.3529 362.195 36.91 360.467 38.9252L361.986 40.2268ZM357.391 45.7787C358.862 43.9887 360.396 42.1345 361.995 40.2162L360.458 38.9358C358.857 40.8575 357.319 42.7153 355.846 44.5093L357.391 45.7787ZM349.91 51.3293C353.871 48.454 356.322 46.6489 357.236 45.9303L356.001 44.3577C355.123 45.0471 352.71 46.826 348.735 49.7107L349.91 51.3293ZM340.189 59.0486C342.722 56.8322 345.963 54.2576 349.918 51.3231L348.727 49.7169C344.746 52.6704 341.459 55.2798 338.872 57.5434L340.189 59.0486ZM329.971 74.52C329.971 70.3199 333.173 65.1717 340.188 59.0494L338.873 57.5426C331.808 63.7083 327.971 69.3761 327.971 74.52H329.971ZM330.987 74.864C330.394 74.864 330.125 74.7595 330.029 74.696C329.995 74.673 329.991 74.6615 329.991 74.6608C329.989 74.6559 329.971 74.6184 329.971 74.52H327.971C327.971 75.2593 328.272 75.9279 328.92 76.3601C329.497 76.7445 330.235 76.864 330.987 76.864V74.864ZM343.708 63.3607C339.906 67.2904 336.904 70.2196 334.695 72.1608C333.588 73.1332 332.7 73.8398 332.023 74.2975C331.684 74.5267 331.417 74.6796 331.218 74.7718C331 74.8728 330.939 74.864 330.987 74.864V76.864C331.37 76.864 331.744 76.7322 332.057 76.5872C332.39 76.4335 332.754 76.2174 333.143 75.9545C333.921 75.4283 334.881 74.6588 336.015 73.6633C338.285 71.6684 341.331 68.6936 345.145 64.7513L343.708 63.3607ZM362.534 41.478C357.51 48.2823 351.237 55.5764 343.708 63.3608L345.145 64.7512C352.72 56.9196 359.055 49.5577 364.143 42.666L362.534 41.478ZM371.616 36.6715L362.88 41.1835L363.797 42.9605L372.533 38.4485L371.616 36.6715ZM381.968 30.3548C378.293 32.8381 374.838 34.9451 371.602 36.6785L372.547 38.4415C375.853 36.6701 379.367 34.5261 383.088 32.0118L381.968 30.3548ZM383.508 30.9818L383.498 30.9411L381.557 31.4255L381.568 31.4662L383.508 30.9818ZM388.448 26.435L382.016 30.371L383.06 32.077L389.492 28.141L388.448 26.435ZM382.706 36.0203C386.097 32.2447 388.451 29.5375 389.751 27.9127L388.189 26.6633C386.929 28.2385 384.61 30.9073 381.218 34.6837L382.706 36.0203ZM379.618 39.3014L382.69 36.0374L381.234 34.6666L378.162 37.9306L379.618 39.3014ZM378.258 40.44C378.258 40.5971 378.22 40.7148 378.204 40.7602C378.185 40.8163 378.164 40.858 378.153 40.8796C378.131 40.9226 378.112 40.9498 378.11 40.9528C378.104 40.962 378.109 40.9536 378.137 40.9192C378.189 40.8547 378.278 40.7512 378.411 40.6028C378.674 40.3091 379.074 39.8769 379.617 39.3026L378.163 37.9294C377.617 38.5071 377.202 38.9549 376.921 39.2692C376.781 39.4248 376.666 39.5574 376.583 39.6608C376.542 39.7105 376.497 39.7691 376.456 39.8282C376.437 39.8562 376.406 39.9042 376.375 39.9637C376.37 39.9733 376.258 40.1712 376.258 40.44H378.258ZM378.061 39.9249C378.106 39.9698 378.258 40.1452 378.258 40.44H376.258C376.258 40.8628 376.474 41.1662 376.647 41.3391L378.061 39.9249ZM379.837 39.9235C379.072 39.8597 378.503 39.8049 378.121 39.7591C377.928 39.7359 377.799 39.7169 377.722 39.7027C377.681 39.6952 377.676 39.6927 377.691 39.6972C377.698 39.6992 377.73 39.7085 377.774 39.7277C377.796 39.7373 377.93 39.7934 378.061 39.9249L376.647 41.3391C376.786 41.4786 376.933 41.5429 376.975 41.5611C377.038 41.5888 377.096 41.6068 377.134 41.6178C377.211 41.6403 377.29 41.6568 377.358 41.6693C377.497 41.6951 377.676 41.7201 377.883 41.7449C378.301 41.7951 378.899 41.8523 379.671 41.9165L379.837 39.9235ZM382.196 38.4083C381.101 39.5636 380.294 39.92 379.754 39.92V41.92C381.134 41.92 382.438 41.0604 383.648 39.7837L382.196 38.4083ZM383.435 37.2416C383.287 37.3153 383.166 37.4153 383.099 37.4727C383.016 37.5437 382.928 37.6272 382.839 37.7169C382.659 37.897 382.436 38.1376 382.174 38.4316L383.669 39.7604C383.92 39.4784 384.113 39.271 384.253 39.1311C384.323 39.0608 384.371 39.0163 384.401 38.9913C384.446 38.9527 384.413 38.9887 384.329 39.0304L383.435 37.2416ZM388.085 33.782C386.581 34.9018 385.43 35.7571 384.631 36.3482C384.231 36.6438 383.921 36.8726 383.699 37.0351C383.588 37.1165 383.5 37.1803 383.435 37.2272C383.403 37.2507 383.377 37.2691 383.357 37.2829C383.348 37.2898 383.34 37.295 383.334 37.2989C383.329 37.303 383.326 37.3044 383.327 37.3039L384.437 38.9681C384.657 38.8209 386.293 37.61 389.279 35.386L388.085 33.782ZM399.914 25.4146C393.197 30.1486 389.254 32.937 388.096 33.7733L389.267 35.3947C390.413 34.567 394.343 31.7874 401.066 27.0494L399.914 25.4146ZM413.015 16.7875C411.067 17.7279 406.67 20.634 399.912 25.4157L401.067 27.0483C407.877 22.23 412.121 19.4401 413.885 18.5886L413.015 16.7875ZM414.642 17.88C414.642 17.6619 414.587 17.3146 414.301 17.0289C414.015 16.7432 413.668 16.688 413.45 16.688V18.688C413.36 18.688 413.108 18.6648 412.887 18.4431C412.665 18.2214 412.642 17.9701 412.642 17.88H414.642ZM409.891 23.8105C411.376 22.4867 412.52 21.3636 413.299 20.4485C413.688 19.9918 414.007 19.5639 414.233 19.1705C414.446 18.8002 414.642 18.3512 414.642 17.88H412.642C412.642 17.8248 412.654 17.9038 412.499 18.1735C412.357 18.4202 412.124 18.7442 411.777 19.1515C411.084 19.9644 410.019 21.0173 408.56 22.3175L409.891 23.8105ZM401.033 32.4777C404.02 29.2372 406.969 26.3514 409.882 23.8186L408.57 22.3094C405.594 24.8966 402.592 27.8349 399.562 31.1223L401.033 32.4777ZM396.882 40.152C396.882 38.1743 398.133 35.6305 401.034 32.4771L399.562 31.1229C396.575 34.3695 394.882 37.3937 394.882 40.152H396.882ZM396.458 39.728C396.42 39.728 396.575 39.7192 396.733 39.8769C396.891 40.0346 396.882 40.1898 396.882 40.152H394.882C394.882 40.4982 394.969 40.9414 395.319 41.2911C395.668 41.6408 396.112 41.728 396.458 41.728V39.728ZM414.72 29.6232C409.578 33.0409 405.461 35.5906 402.363 37.2823C400.812 38.1286 399.534 38.7505 398.521 39.1583C397.477 39.578 396.815 39.728 396.458 39.728V41.728C397.22 41.728 398.182 41.45 399.267 41.0138C400.381 40.5655 401.735 39.9034 403.321 39.0377C406.494 37.3054 410.666 34.7191 415.827 31.2888L414.72 29.6232ZM414.181 29.2847L414.277 30.5327L416.271 30.3793L416.175 29.1313L414.181 29.2847ZM411.792 32.6352L415.728 30.0432L414.628 28.3728L410.692 30.9648L411.792 32.6352ZM398.282 40.384C398.579 40.384 398.882 40.2801 399.093 40.1998C399.342 40.1046 399.637 39.9705 399.969 39.8056C400.635 39.4746 401.516 38.9874 402.603 38.3511C404.781 37.0765 407.843 35.1717 411.782 32.6414L410.701 30.9586C406.769 33.4843 403.735 35.3715 401.593 36.6249C400.52 37.2526 399.685 37.7134 399.079 38.0145C398.775 38.1655 398.544 38.2684 398.38 38.3312C398.176 38.4089 398.177 38.384 398.282 38.384V40.384ZM396.898 39.288C396.898 39.6968 397.124 39.9815 397.322 40.13C397.492 40.2574 397.663 40.3081 397.751 40.3301C397.938 40.3767 398.133 40.384 398.282 40.384V38.384C398.174 38.384 398.178 38.3753 398.236 38.3899C398.26 38.3959 398.384 38.4266 398.522 38.53C398.688 38.6545 398.898 38.9112 398.898 39.288H396.898ZM406.438 29.2388C403.363 32.0579 401.045 34.255 399.491 35.8246C398.717 36.6072 398.117 37.2487 397.706 37.7412C397.502 37.9854 397.327 38.2135 397.198 38.417C397.133 38.5185 397.068 38.6332 397.015 38.755C396.969 38.8615 396.898 39.0536 396.898 39.288H398.898C398.898 39.3774 398.884 39.4444 398.874 39.4797C398.865 39.5166 398.855 39.5396 398.852 39.5458C398.848 39.556 398.854 39.5395 398.886 39.49C398.948 39.3915 399.061 39.2386 399.242 39.0228C399.598 38.5953 400.151 38.0008 400.913 37.2314C402.431 35.697 404.721 33.5261 407.79 30.7132L406.438 29.2388ZM412.657 22.4543C410.772 24.9049 408.699 27.1662 406.438 29.2388L407.79 30.7132C410.136 28.5618 412.288 26.2151 414.242 23.6737L412.657 22.4543ZM415.33 17.496C415.33 17.8677 415.174 18.466 414.722 19.3406C414.279 20.1964 413.597 21.2323 412.657 22.4543L414.242 23.6737C415.222 22.3997 415.981 21.2596 416.498 20.2594C417.006 19.278 417.33 18.3403 417.33 17.496H415.33ZM415.37 16.576C415.355 16.576 415.297 16.5694 415.235 16.5281C415.179 16.4909 415.175 16.4618 415.195 16.5032C415.251 16.6142 415.33 16.9071 415.33 17.496H417.33C417.33 16.8049 417.249 16.1378 416.984 15.6088C416.845 15.3302 416.64 15.0611 416.345 14.864C416.043 14.6626 415.705 14.576 415.37 14.576V16.576ZM411.91 18.6044C412.953 17.8772 413.784 17.3482 414.41 17.0051C414.724 16.8333 414.969 16.7179 415.152 16.6477C415.353 16.5707 415.409 16.576 415.37 16.576V14.576C415.043 14.576 414.715 14.6733 414.436 14.7803C414.139 14.8941 413.808 15.0547 413.45 15.2509C412.732 15.6438 411.835 16.2188 410.766 16.9636L411.91 18.6044ZM397.124 28.7815C404.871 23.4037 409.79 20.0177 411.893 18.6161L410.783 16.952C408.662 18.3663 403.725 21.7643 395.984 27.1385L397.124 28.7815ZM390.068 33.8343C390.937 33.1513 393.278 31.4734 397.127 28.7792L395.98 27.1408C392.149 29.8226 389.755 31.5367 388.832 32.2617L390.068 33.8343ZM388.01 35.008C388.204 35.008 388.358 34.9544 388.422 34.9307C388.504 34.9004 388.578 34.8643 388.638 34.8329C388.758 34.7697 388.888 34.6882 389.021 34.6C389.289 34.4213 389.638 34.1652 390.06 33.8406L388.84 32.2554C388.43 32.5708 388.123 32.7947 387.911 32.936C387.803 33.0078 387.738 33.0463 387.706 33.0631C387.69 33.0717 387.699 33.0656 387.727 33.0553C387.737 33.0516 387.848 33.008 388.01 33.008V35.008ZM386.914 33.624C386.914 33.7724 386.921 33.9681 386.968 34.1545C386.99 34.2426 387.04 34.4142 387.168 34.5841C387.316 34.7821 387.601 35.008 388.01 35.008V33.008C388.387 33.008 388.643 33.2179 388.768 33.3839C388.871 33.5218 388.902 33.6454 388.908 33.6695C388.923 33.7279 388.914 33.7316 388.914 33.624H386.914ZM389.262 30.0981C388.554 30.9358 388.008 31.6126 387.635 32.1206C387.451 32.3727 387.295 32.6018 387.18 32.799C387.124 32.897 387.066 33.0056 387.021 33.1177C386.983 33.2094 386.914 33.3965 386.914 33.624H388.914C388.914 33.7168 388.899 33.7848 388.891 33.8156C388.882 33.8493 388.874 33.8694 388.873 33.8723C388.871 33.8764 388.88 33.855 388.911 33.801C388.973 33.6942 389.081 33.5313 389.248 33.3034C389.58 32.8514 390.09 32.2162 390.789 31.3899L389.262 30.0981ZM394.64 23.6643C392.461 26.2273 390.665 28.377 389.251 30.1123L390.801 31.3757C392.203 29.655 393.99 27.5167 396.164 24.9597L394.64 23.6643ZM399.763 17.0243C398.506 18.847 396.798 21.0622 394.632 23.6737L396.172 24.9503C398.358 22.3138 400.106 20.049 401.409 18.1597L399.763 17.0243ZM399.118 16.2367C399.255 16.2826 399.586 16.4497 399.586 17.592H401.586C401.586 16.1743 401.148 14.8054 399.75 14.3393L399.118 16.2367ZM397.435 19.4589C399.093 17.3543 400.033 16.1564 400.234 15.888L398.634 14.688C398.451 14.9316 397.534 16.1017 395.864 18.2211L397.435 19.4589ZM395.183 22.0069C396.39 20.6728 397.151 19.8142 397.431 19.4647L395.869 18.2153C395.637 18.5058 394.925 19.3112 393.7 20.6651L395.183 22.0069ZM385.973 28.8881C390.751 25.7027 393.859 23.4011 395.167 22.0248L393.717 20.6473C392.592 21.8309 389.685 24.0093 384.863 27.224L385.973 28.8881ZM382.787 30.9157L385.955 28.8997L384.881 27.2123L381.713 29.2283L382.787 30.9157ZM383.221 29.8319L383.22 29.8276L381.28 30.3164L381.281 30.3208L383.221 29.8319ZM379.993 32.6503L382.777 30.9266L381.725 29.2261L378.94 30.9497L379.993 32.6503ZM365.931 40.384C366.227 40.384 366.537 40.3047 366.808 40.2165C367.099 40.1221 367.431 39.9878 367.8 39.8214C368.538 39.4883 369.481 38.9984 370.619 38.3604C372.9 37.0826 376.031 35.1748 380.004 32.6434L378.929 30.9566C374.967 33.4812 371.873 35.3654 369.642 36.6156C368.525 37.2416 367.639 37.6997 366.977 37.9986C366.646 38.1482 366.386 38.2509 366.19 38.3145C365.975 38.3843 365.906 38.384 365.931 38.384V40.384ZM383.676 14.9534C377.819 22.3142 373.345 27.9816 370.253 31.9538C368.708 33.9396 367.506 35.505 366.649 36.648C365.814 37.7607 365.258 38.5364 365.056 38.8984L366.805 39.8696C366.924 39.6556 367.379 39.0073 368.249 37.848C369.095 36.719 370.289 35.1644 371.832 33.1822C374.916 29.2185 379.386 23.5578 385.241 16.1986L383.676 14.9534ZM383.403 15.424C383.49 15.424 383.524 15.4363 383.523 15.4358C383.516 15.4333 383.487 15.4194 383.457 15.3877C383.43 15.3579 383.429 15.3406 383.436 15.3642C383.445 15.3916 383.459 15.4572 383.459 15.576H385.459C385.459 15.0584 385.342 14.4836 384.932 14.0363C384.507 13.5725 383.932 13.424 383.403 13.424V15.424ZM362.154 22.7769C368.04 17.8821 375.105 15.424 383.403 15.424V13.424C374.676 13.424 367.149 16.0219 360.875 21.2391L362.154 22.7769ZM355.586 30.2341C357.017 27.7532 359.195 25.2638 362.158 22.7735L360.871 21.2425C357.782 23.8384 355.431 26.5 353.853 29.235L355.586 30.2341ZM354.171 28.8985C349.275 32.1122 345.476 34.5141 342.766 36.11C341.41 36.9089 340.341 37.497 339.553 37.8824C339.157 38.0756 338.848 38.2098 338.618 38.2937C338.359 38.3882 338.291 38.384 338.337 38.384V40.384C338.663 40.384 339.011 40.2793 339.303 40.1728C339.625 40.0556 340.003 39.8883 340.431 39.6794C341.288 39.2607 342.407 38.6426 343.781 37.8333C346.533 36.2126 350.364 33.7898 355.268 30.5705L354.171 28.8985ZM338.337 38.384C338.283 38.384 338.429 38.369 338.601 38.5071C338.695 38.5817 338.766 38.6788 338.81 38.7834C338.851 38.8819 338.857 38.9616 338.857 39H336.857C336.857 39.3487 336.977 39.7686 337.352 40.0689C337.685 40.335 338.07 40.384 338.337 40.384V38.384ZM338.772 39.4027C339.068 38.7292 339.875 37.5063 341.288 35.6751C342.68 33.872 344.602 31.5518 347.061 28.7103L345.548 27.4017C343.079 30.2562 341.129 32.608 339.705 34.4529C338.303 36.2697 337.349 37.6708 336.941 38.5973L338.772 39.4027ZM347.057 28.7151C352.046 23.0219 355.804 18.9146 358.34 16.3791L356.925 14.9649C354.341 17.5494 350.547 21.6981 345.553 27.3969L347.057 28.7151ZM358.433 16.272C358.639 15.9973 358.814 15.7383 358.942 15.5028C359.049 15.3071 359.209 14.9808 359.209 14.616H357.209C357.209 14.5583 357.216 14.5158 357.22 14.4929C357.223 14.4808 357.225 14.4718 357.227 14.4662C357.228 14.4605 357.229 14.4575 357.23 14.4572C357.23 14.457 357.227 14.4645 357.22 14.4805C357.212 14.4962 357.202 14.5176 357.187 14.5452C357.123 14.6617 357.011 14.8347 356.833 15.072L358.433 16.272ZM359.209 14.616C359.209 14.0767 358.906 13.6804 358.547 13.456C358.237 13.2627 357.876 13.1827 357.565 13.1437L357.317 15.1283C357.406 15.1395 357.464 15.1524 357.497 15.162C357.531 15.1721 357.521 15.1734 357.487 15.152C357.45 15.1292 357.375 15.0727 357.309 14.9661C357.239 14.8527 357.209 14.7277 357.209 14.616H359.209ZM357.527 13.1398L355.319 12.9478L355.146 14.9402L357.354 15.1322L357.527 13.1398ZM355.233 12.944C354.345 12.944 353.612 13.3999 353.04 14.0535L354.545 15.3705C354.869 15.0001 355.096 14.944 355.233 14.944V12.944ZM353.08 14.0101C348.694 18.4607 344.536 23.3281 340.606 28.6111L342.211 29.8049C346.089 24.5919 350.187 19.7953 354.505 15.4139L353.08 14.0101ZM340.605 28.6131C340.6 28.6202 340.594 28.6272 340.589 28.6342L342.196 29.8248C342.202 29.8175 342.207 29.8102 342.212 29.8029L340.605 28.6131ZM331.21 36.8686L341.928 30.0741L340.857 28.3849L330.139 35.1794L331.21 36.8686ZM330.291 37.12C330.435 37.12 330.603 37.1087 330.773 37.0661C330.937 37.0251 331.176 36.937 331.382 36.7311L329.967 35.3169C330.109 35.175 330.252 35.1349 330.288 35.1259C330.33 35.1153 330.338 35.12 330.291 35.12V37.12ZM329.099 35.736C329.099 35.9151 329.116 36.1982 329.252 36.4712C329.327 36.6218 329.452 36.7949 329.652 36.928C329.858 37.0654 330.084 37.12 330.291 37.12V35.12C330.434 35.12 330.603 35.1586 330.761 35.264C330.913 35.3651 330.998 35.4902 331.041 35.5768C331.114 35.7218 331.099 35.8129 331.099 35.736H329.099ZM332.73 27.0889C330.543 32.2363 329.378 34.9413 329.204 35.2888L330.993 36.1832C331.203 35.7627 332.407 32.9637 334.571 27.8711L332.73 27.0889ZM337.743 17.5569C337.141 18.159 336.44 19.2974 335.644 20.8261C334.828 22.3925 333.857 24.4811 332.733 27.0833L334.569 27.8767C335.684 25.2949 336.633 23.2555 337.418 21.7499C338.221 20.2066 338.8 19.329 339.158 18.9711L337.743 17.5569ZM339.375 15.8289C338.498 16.7063 337.895 17.3384 337.651 17.664L339.251 18.864C339.39 18.6776 339.875 18.1577 340.79 17.2431L339.375 15.8289ZM341.51 13.6073C341.04 14.194 340.343 14.9248 339.4 15.8049L340.765 17.2671C341.742 16.3552 342.517 15.55 343.071 14.8567L341.51 13.6073ZM342.059 12.792C342.059 12.7018 342.078 12.6619 342.066 12.6975C342.056 12.7257 342.033 12.7827 341.984 12.8734C341.887 13.0558 341.725 13.3099 341.482 13.6438L343.099 14.8202C343.368 14.4501 343.59 14.1122 343.749 13.8146C343.886 13.558 344.059 13.1852 344.059 12.792H342.059ZM342.579 13.312C342.578 13.312 342.537 13.3123 342.472 13.2907C342.403 13.2675 342.314 13.2213 342.231 13.1391C342.149 13.057 342.103 12.9679 342.08 12.8982C342.058 12.8334 342.059 12.7924 342.059 12.792H344.059C344.059 12.4778 343.979 12.0586 343.646 11.7249C343.312 11.3912 342.893 11.312 342.579 11.312V13.312ZM339.358 15.8809C340.572 14.923 341.487 14.2212 342.11 13.7696C342.424 13.5417 342.647 13.3898 342.79 13.3023C342.865 13.2561 342.89 13.245 342.881 13.249C342.879 13.2498 342.832 13.2715 342.757 13.2881C342.731 13.2938 342.448 13.365 342.131 13.2064L343.026 11.4176C342.693 11.251 342.385 11.3219 342.326 11.3351C342.216 11.3593 342.126 11.3962 342.072 11.42C341.959 11.47 341.844 11.5359 341.744 11.5977C341.534 11.7262 341.261 11.9143 340.936 12.1504C340.279 12.6268 339.338 13.349 338.119 14.3111L339.358 15.8809ZM336.195 18.5649C337.172 17.7838 338.241 16.8762 339.403 15.8434L338.074 14.3486C336.932 15.3638 335.89 16.2482 334.946 17.0031L336.195 18.5649ZM333.488 20.1803L336.08 18.6443L335.061 16.9237L332.469 18.4597L333.488 20.1803ZM315.852 30.9154C323.077 26.3118 328.948 22.7386 333.469 20.1912L332.488 18.4488C327.921 21.0214 322.016 24.6162 314.777 29.2286L315.852 30.9154ZM316.573 30.9815L316.285 29.8295L314.344 30.3145L314.632 31.4665L316.573 30.9815ZM354.971 28.3728C354.701 28.5504 354.434 28.7256 354.171 28.8986L355.268 30.5705C355.533 30.3971 355.8 30.2213 356.071 30.0432L354.971 28.3728ZM356.614 30.3793L356.518 29.1313L354.524 29.2847L354.62 30.5327L356.614 30.3793ZM354.285 32.5303L356.167 31.2912L355.067 29.6208L353.185 30.8599L354.285 32.5303ZM354.654 32.0888C354.919 31.4714 355.229 30.8532 355.586 30.2341L353.853 29.235C353.459 29.9188 353.113 30.6077 352.816 31.3014L354.654 32.0888ZM341.928 30.0741L341.962 30.0526L340.891 28.3634L340.857 28.3849L341.928 30.0741ZM340.43 29.2847L340.526 30.5327L342.52 30.3793L342.424 29.1313L340.43 29.2847ZM341.019 29.5922C340.563 29.858 339.942 30.2386 339.159 30.7306L340.223 32.4239C341 31.9359 341.599 31.569 342.026 31.3198L341.019 29.5922ZM340.589 28.6344C339.968 29.4725 339.397 30.2611 338.874 31L340.508 32.1545C341.02 31.4293 341.583 30.6527 342.196 29.8246L340.589 28.6344ZM362.145 7.664C361.726 7.664 361.599 7.56897 361.582 7.55417C361.576 7.54859 361.564 7.53768 361.55 7.50061C361.534 7.45762 361.513 7.372 361.513 7.224H359.513C359.513 7.89287 359.708 8.56757 360.259 9.05383C360.786 9.51903 361.475 9.664 362.145 9.664V7.664ZM364.39 6.54168C363.64 7.34435 362.899 7.664 362.145 7.664V9.664C363.566 9.664 364.809 9.02366 365.852 7.90632L364.39 6.54168ZM365.465 4.92C365.465 4.91218 365.457 5.04685 365.265 5.37613C365.085 5.6844 364.794 6.07906 364.368 6.5655L365.873 7.8825C366.344 7.34494 366.724 6.8436 366.992 6.38387C367.248 5.94515 367.465 5.43982 367.465 4.92H365.465ZM365.181 4.28311C365.391 4.49221 365.465 4.69058 365.465 4.92H367.465C367.465 4.12542 367.155 3.42779 366.596 2.86889L365.181 4.28311ZM364.353 4C364.886 4 365.059 4.14216 365.12 4.21616L366.657 2.93584C366.079 2.24184 365.227 2 364.353 2V4ZM362.635 5.07505C363.575 4.19766 364.126 4 364.353 4V2C363.299 2 362.25 2.69834 361.27 3.61295L362.635 5.07505ZM361.513 7.224C361.513 6.5504 361.817 5.83847 362.635 5.07506L361.27 3.61294C360.168 4.64153 359.513 5.8496 359.513 7.224H361.513ZM369.418 30.0984C370.601 29.1935 372.782 26.9015 375.899 23.3385L374.394 22.0215C371.24 25.6265 369.196 27.7505 368.203 28.5096L369.418 30.0984ZM364.123 34.1419C365.693 32.9885 366.922 32.0723 367.81 31.3948C368.669 30.7385 369.268 30.2611 369.518 30.0111L368.104 28.5969C367.97 28.7309 367.496 29.1175 366.596 29.8052C365.723 30.4717 364.505 31.3795 362.939 32.5301L364.123 34.1419ZM360.936 36.4592C362.223 35.5583 363.292 34.781 364.14 34.1286L362.921 32.5434C362.105 33.171 361.062 33.9297 359.789 34.8208L360.936 36.4592ZM357.691 38.5242C358.618 37.9946 359.698 37.3067 360.927 36.4653L359.798 34.8147C358.596 35.6373 357.564 36.2934 356.698 36.7877L357.691 38.5242ZM355.371 39.328C355.734 39.328 356.111 39.2271 356.46 39.0983C356.823 38.9646 357.228 38.7736 357.669 38.5365L356.72 36.7755C356.329 36.9864 356.014 37.1314 355.769 37.2217C355.647 37.2664 355.552 37.2944 355.48 37.3106C355.445 37.3185 355.418 37.3231 355.399 37.3255C355.379 37.328 355.371 37.328 355.371 37.328V39.328ZM353.795 37.752C353.795 38.0982 353.882 38.5414 354.232 38.8911C354.581 39.2408 355.024 39.328 355.371 39.328V37.328C355.333 37.328 355.488 37.3192 355.646 37.4769C355.803 37.6346 355.795 37.7898 355.795 37.752H353.795ZM362.857 23.3812C359.907 26.0716 357.656 28.6017 356.137 30.9724C354.62 33.3397 353.795 35.6072 353.795 37.752H355.795C355.795 36.1207 356.426 34.2283 357.821 32.0516C359.213 29.8783 361.33 27.4804 364.204 24.8588L362.857 23.3812ZM379.083 15.056C374.157 15.056 368.735 17.9549 362.852 23.3852L364.209 24.8548C369.974 19.5331 374.921 17.056 379.083 17.056V15.056ZM380.851 16.44C380.851 16.201 380.788 15.9473 380.635 15.7173C380.485 15.4936 380.288 15.3489 380.106 15.2576C379.769 15.0891 379.39 15.056 379.083 15.056V17.056C379.172 17.056 379.226 17.0618 379.254 17.0664C379.285 17.0715 379.262 17.0718 379.211 17.0464C379.157 17.0191 379.056 16.9544 378.971 16.8267C378.881 16.6927 378.851 16.551 378.851 16.44H380.851ZM375.899 23.3385C377.472 21.5405 378.667 20.1031 379.473 19.034C379.875 18.5013 380.194 18.0412 380.418 17.6624C380.529 17.4734 380.628 17.2861 380.702 17.1072C380.768 16.9475 380.851 16.7078 380.851 16.44H378.851C378.851 16.3163 378.885 16.2675 378.852 16.3458C378.828 16.4049 378.78 16.5026 378.695 16.6456C378.527 16.9308 378.259 17.3227 377.876 17.83C377.114 18.8409 375.957 20.2355 374.394 22.0215L375.899 23.3385ZM331.755 74.656C332.079 74.656 332.339 74.5149 332.448 74.4531C332.596 74.3694 332.744 74.2625 332.887 74.1502C333.174 73.9234 333.525 73.6035 333.93 73.2063C334.746 72.4074 335.855 71.2244 337.251 69.6677C340.047 66.5502 344.04 61.8833 349.226 55.673L347.691 54.391C342.509 60.5967 338.534 65.2418 335.762 68.3323C334.374 69.8796 333.299 71.0246 332.531 71.7777C332.144 72.1566 331.853 72.4186 331.648 72.5798C331.545 72.6615 331.485 72.7001 331.461 72.7135C331.399 72.7486 331.526 72.656 331.755 72.656V74.656ZM330.467 73.08C330.467 73.3231 330.492 73.6543 330.644 73.9592C330.727 74.1258 330.862 74.3109 331.074 74.452C331.292 74.5974 331.532 74.656 331.755 74.656V72.656C331.882 72.656 332.037 72.6906 332.183 72.788C332.323 72.8811 332.398 72.9942 332.433 73.0648C332.466 73.1315 332.472 73.1741 332.471 73.1676C332.47 73.1638 332.467 73.137 332.467 73.08H330.467ZM332.732 66.1158C331.253 68.4694 330.467 70.7961 330.467 73.08H332.467C332.467 71.268 333.089 69.3066 334.425 67.1802L332.732 66.1158ZM340.597 57.5458C336.802 60.8911 334.147 63.7575 332.721 66.1335L334.436 67.1625C335.698 65.0585 338.163 62.3569 341.92 59.0462L340.597 57.5458ZM352.866 47.8847C348.492 51.0367 344.405 54.2548 340.605 57.5395L341.913 59.0525C345.665 55.8092 349.705 52.6273 354.035 49.5073L352.866 47.8847ZM354.643 48.888C354.643 48.6699 354.587 48.3226 354.302 48.0369C354.016 47.7512 353.669 47.696 353.451 47.696V49.696C353.36 49.696 353.109 49.6728 352.887 49.4511C352.666 49.2294 352.643 48.9781 352.643 48.888H354.643ZM349.223 55.6769L354.407 49.5329L352.878 48.2431L347.694 54.3871L349.223 55.6769ZM31.0619 16.1665C31.0619 17.7881 30.7313 19.2835 30.0766 20.6658L31.884 21.5219C32.6715 19.8596 33.0619 18.0701 33.0619 16.1665H31.0619ZM28.077 8.42709C30.0359 10.2435 31.0619 12.7791 31.0619 16.1665H33.0619C33.0619 12.3431 31.8847 9.23027 29.4369 6.96056L28.077 8.42709ZM19.6834 5.56915C23.3451 5.56915 26.0985 6.55651 28.07 8.42047L29.444 6.96718C27.0089 4.66491 23.7132 3.56915 19.6834 3.56915V5.56915ZM4 5.56915H19.6834V3.56915H4V5.56915ZM5.05513 5.07055L4.99504 4.46965L3.00496 4.66866L3.06505 5.26956L5.05513 5.07055ZM4.78117 4.17005H4.06009V6.17005H4.78117V4.17005ZM8.05165 5.46457C7.14294 4.60634 6.03522 4.17005 4.78117 4.17005V6.17005C5.5301 6.17005 6.14496 6.41478 6.6784 6.91859L8.05165 5.46457ZM9.61979 8.53612C9.47196 7.30418 8.94192 6.2553 8.02939 5.44417L6.70066 6.93899C7.23029 7.40977 7.54151 8.00335 7.63404 8.77441L9.61979 8.53612ZM9.62691 42.2454V8.65526H7.62691V42.2454H9.62691ZM8.13222 45.6566C9.06506 44.7238 9.57609 43.5861 9.62617 42.2839L7.62765 42.207C7.59762 42.9879 7.30745 43.6529 6.71801 44.2424L8.13222 45.6566ZM4.78117 47.0311C6.08159 47.0311 7.21917 46.5697 8.13222 45.6566L6.71801 44.2424C6.18891 44.7715 5.56386 45.0311 4.78117 45.0311V47.0311ZM4 47.0311H4.78117V45.0311H4V47.0311ZM5 46.632V46.0311H3V46.632H5ZM17.1597 45.632H4V47.632H17.1597V45.632ZM16.1597 46.0311V46.632H18.1597V46.0311H16.1597ZM16.3785 47.0311H17.1597V45.0311H16.3785V47.0311ZM12.9867 45.6754C13.9322 46.5712 15.0792 47.0311 16.3785 47.0311V45.0311C15.5947 45.0311 14.939 44.7699 14.3622 44.2235L12.9867 45.6754ZM11.5335 42.2839C11.5829 43.5694 12.0617 44.7011 12.9485 45.6372L14.4004 44.2617C13.8451 43.6756 13.5627 43.0046 13.532 42.207L11.5335 42.2839ZM11.5327 6.37185V42.2454H13.5327V6.37185H11.5327ZM19.4431 5.37185H12.5327V7.37185H19.4431V5.37185ZM26.1001 8.25544C24.4779 6.30878 22.2131 5.37185 19.4431 5.37185V7.37185C21.7206 7.37185 23.3817 8.11743 24.5636 9.5358L26.1001 8.25544ZM28.5548 15.537C28.4701 12.5737 27.682 10.1084 26.0924 8.24636L24.5713 9.54488C25.7859 10.9677 26.48 12.9491 26.5556 15.5941L28.5548 15.537ZM28.5552 16.8876V15.5656H26.5552V16.8876H28.5552ZM28.1525 19.4583C28.4164 18.5785 28.5552 17.7201 28.5552 16.8876H26.5552C26.5552 17.4972 26.4536 18.1611 26.2368 18.8836L28.1525 19.4583ZM23.1416 25.5904C25.6069 24.3354 27.2753 22.2655 28.1491 19.4692L26.2402 18.8727C25.5116 21.2041 24.1756 22.8198 22.2342 23.8081L23.1416 25.5904ZM14.3617 26.6375C17.4963 27.3245 20.4404 26.9846 23.1466 25.5879L22.2293 23.8106C19.968 24.9777 17.504 25.2787 14.7899 24.6839L14.3617 26.6375ZM15.5758 26.2616V25.6607H13.5758V26.2616H15.5758ZM21.0054 26.6436C18.6446 26.6436 16.6643 26.206 15.0309 25.3711L14.1207 27.152C16.0927 28.1599 18.3988 28.6436 21.0054 28.6436V26.6436ZM23.6839 26.0974C22.5832 26.4769 21.6973 26.6436 21.0054 26.6436V28.6436C21.996 28.6436 23.1131 28.4098 24.3359 27.9881L23.6839 26.0974ZM30.0735 20.6724C28.8812 23.2375 26.7897 25.0496 23.6902 26.0952L24.3295 27.9903C27.88 26.7925 30.4354 24.6387 31.8871 21.5153L30.0735 20.6724ZM49.0302 11.4409H45.8455V13.4409H49.0302V11.4409ZM52.7928 11.5017C51.6959 11.4611 50.4413 11.4409 49.0302 11.4409V13.4409C50.4234 13.4409 51.6525 13.4608 52.7188 13.5003L52.7928 11.5017ZM59.2602 13.9271C57.6065 12.4112 55.4216 11.6309 52.8049 11.5022L52.7067 13.4998C54.9774 13.6115 56.6782 14.2734 57.9088 15.4014L59.2602 13.9271ZM61.7478 20.3127C61.7478 17.6635 60.9584 15.4837 59.2602 13.9271L57.9088 15.4014C59.095 16.4887 59.7478 18.0745 59.7478 20.3127H61.7478ZM60.0935 26.1306C61.1962 24.3663 61.7478 22.4195 61.7478 20.3127H59.7478C59.7478 22.0516 59.2978 23.63 58.3975 25.0706L60.0935 26.1306ZM56.9994 28.6528C58.3878 27.9376 59.4718 27.1149 60.091 26.1346L58.4 25.0666C58.0578 25.6085 57.3391 26.228 56.0835 26.8748L56.9994 28.6528ZM48.0688 29.4849C50.4249 29.4849 52.3345 29.4246 53.787 29.301C54.513 29.2392 55.1395 29.1604 55.6582 29.0616C56.1624 28.9656 56.6255 28.8398 56.9887 28.6582L56.0943 26.8694C55.9768 26.9281 55.7262 27.0127 55.284 27.0969C54.8563 27.1784 54.3035 27.2498 53.6174 27.3082C52.2457 27.425 50.3997 27.4849 48.0688 27.4849V29.4849ZM49.0688 29.0858V28.4849H47.0688V29.0858H49.0688ZM54.9165 32.4843C52.7112 29.7481 50.4296 28.0858 48.0688 28.0858V30.0858C49.4736 30.0858 51.2381 31.1075 53.3593 33.7393L54.9165 32.4843ZM57.7819 36.5652C56.0292 34.0556 55.0715 32.69 54.9379 32.5118L53.3379 33.7118C53.4446 33.8541 54.3698 35.1725 56.1423 37.7104L57.7819 36.5652ZM60.8267 40.7441C60.5924 40.4318 59.5776 39.0389 57.7714 36.5504L56.1528 37.7252C57.952 40.2041 58.9802 41.6155 59.2267 41.9441L60.8267 40.7441ZM64.3126 43.9409C63.0355 43.0771 61.8638 42.0018 60.7986 40.7084L59.2547 41.9798C60.4329 43.4105 61.7449 44.6186 63.1919 45.5975L64.3126 43.9409ZM71.2034 45.632C68.155 45.632 65.8962 45.0319 64.3195 43.9457L63.1849 45.5927C65.2137 46.9903 67.9223 47.632 71.2034 47.632V45.632ZM73.0662 45.632H71.2034V47.632H73.0662V45.632ZM72.0662 46.0311V46.632H74.0662V46.0311H72.0662ZM67.2713 44.6544C68.9268 46.2204 70.871 47.0311 73.0662 47.0311V45.0311C71.4156 45.0311 69.9547 44.4397 68.6457 43.2015L67.2713 44.6544ZM65.0581 42.3804C65.9469 43.3499 66.6887 44.1134 67.2781 44.6608L68.639 43.1952C68.1067 42.7009 67.4063 41.9822 66.5324 41.0289L65.0581 42.3804ZM61.5962 38.1917C63.0394 39.9556 64.1843 41.3415 65.0296 42.3478L66.561 41.0614C65.7238 40.0648 64.5852 38.6865 63.1441 36.9252L61.5962 38.1917ZM60.3271 33.9145C60.0739 33.9145 59.7092 34.0213 59.4821 34.3783C59.3054 34.656 59.3221 34.9252 59.3296 35.0076C59.3462 35.1903 59.4115 35.3251 59.4177 35.3386C59.4518 35.4136 59.4902 35.4738 59.5022 35.4927C59.5373 35.5478 59.5814 35.61 59.6235 35.6679C59.7126 35.7904 59.8451 35.9651 60.0166 36.1869C60.3615 36.6334 60.8859 37.2989 61.5876 38.181L63.1528 36.9359C62.4523 36.0554 61.9352 35.3989 61.5991 34.964C61.43 34.7452 61.3122 34.5894 61.241 34.4916C61.203 34.4394 61.1895 34.4189 61.1896 34.4189C61.1904 34.4203 61.195 34.4274 61.2015 34.4388C61.2065 34.4475 61.2215 34.4738 61.2384 34.511C61.2414 34.5177 61.3051 34.6473 61.3214 34.8265C61.3287 34.9072 61.3456 35.1752 61.1695 35.452C60.9429 35.8081 60.5791 35.9145 60.3271 35.9145V33.9145ZM55.2994 31.1436C56.3044 31.5833 57.7107 32.932 59.5091 35.4897L61.1452 34.3393C59.3382 31.7694 57.6599 29.9933 56.101 29.3113L55.2994 31.1436ZM61.7002 26.2992C60.1132 27.9945 58.0981 28.9754 55.5978 29.2327L55.8026 31.2222C58.7505 30.9188 61.2221 29.7364 63.1603 27.6661L61.7002 26.2992ZM64.0742 19.9521C64.0742 22.5267 63.2736 24.6186 61.7002 26.2992L63.1603 27.6661C65.1122 25.581 66.0742 22.986 66.0742 19.9521H64.0742ZM61.1534 13.9498C63.1135 15.4823 64.0742 17.4547 64.0742 19.9521H66.0742C66.0742 16.8412 64.8317 14.2869 62.3852 12.3742L61.1534 13.9498ZM52.876 11.5781C56.4966 11.5781 59.2147 12.4061 61.1464 13.9443L62.3922 12.3797C59.9974 10.4727 56.7866 9.57813 52.876 9.57813V11.5781ZM37.7935 11.5781H52.876V9.57813H37.7935V11.5781ZM38.7935 11.179V10.5781H36.7935V11.179H38.7935ZM38.6347 10.179H37.7935V12.179H38.6347V10.179ZM41.6622 11.3508C40.8261 10.5671 39.7965 10.179 38.6347 10.179V12.179C39.3157 12.179 39.8484 12.3919 40.2943 12.8099L41.6622 11.3508ZM42.9997 14.3037C42.9997 13.1256 42.5285 12.1147 41.6398 11.3305L40.3166 12.8302C40.79 13.2479 40.9997 13.7191 40.9997 14.3037H42.9997ZM42.9997 42.8463V14.3037H40.9997V42.8463H42.9997ZM41.6636 45.858C42.5316 45.041 42.9997 44.0217 42.9997 42.8463H40.9997C40.9997 43.4336 40.7868 43.9366 40.2929 44.4016L41.6636 45.858ZM38.6347 47.0311C39.7965 47.0311 40.8261 46.6431 41.6622 45.8593L40.2943 44.4002C39.8484 44.8182 39.3157 45.0311 38.6347 45.0311V47.0311ZM37.7935 47.0311H38.6347V45.0311H37.7935V47.0311ZM38.7935 46.632V46.0311H36.7935V46.632H38.7935ZM50.1119 45.632H37.7935V47.632H50.1119V45.632ZM49.0567 46.1306L49.1168 46.7315L51.1069 46.5325L51.0468 45.9316L49.0567 46.1306ZM49.2706 47.0311H50.0518V45.0311H49.2706V47.0311ZM47.0539 46.4909C47.7324 46.8563 48.4784 47.0311 49.2706 47.0311V45.0311C48.7809 45.0311 48.3652 44.9255 48.0021 44.73L47.0539 46.4909ZM44.846 42.8185C44.8972 44.4068 45.6468 45.6581 47.0182 46.4708L48.0378 44.7502C47.2459 44.2809 46.8739 43.6494 46.845 42.754L44.846 42.8185ZM44.8455 12.4409V42.7863H46.8455V12.4409H44.8455ZM83.61 13.0279C86.5437 11.5039 89.7692 10.7369 93.3042 10.7369V8.73688C89.4682 8.73688 85.9236 9.57224 82.688 11.2531L83.61 13.0279ZM76.6007 19.3488C78.3461 16.6169 80.6741 14.5149 83.6009 13.0326L82.6972 11.2484C79.4547 12.8907 76.8554 15.2354 74.9153 18.272L76.6007 19.3488ZM74.0539 27.9441C74.0539 24.9384 74.8963 22.076 76.606 19.3404L74.91 18.2804C73.0143 21.3135 72.0539 24.5402 72.0539 27.9441H74.0539ZM75.5314 35.8332C74.5569 33.622 74.0539 31.0005 74.0539 27.9441H72.0539C72.0539 31.2172 72.5925 34.1239 73.7012 36.6397L75.5314 35.8332ZM79.6162 41.5062C77.9195 39.9604 76.5549 38.0696 75.5256 35.8203L73.707 36.6526C74.8409 39.1304 76.3606 41.2456 78.2693 42.9846L79.6162 41.5062ZM85.7802 45.1536C83.4048 44.2724 81.3512 43.0526 79.6081 41.4989L78.2774 42.992C80.2198 44.7232 82.4927 46.0672 85.0846 47.0288L85.7802 45.1536ZM94.0253 46.4733C90.8733 46.4733 88.1308 46.0256 85.7802 45.1536L85.0846 47.0288C87.7015 47.9995 90.6875 48.4733 94.0253 48.4733V46.4733ZM103.068 44.2377C100.114 45.7338 97.1029 46.4733 94.0253 46.4733V48.4733C97.4374 48.4733 100.756 47.6504 103.971 46.0219L103.068 44.2377ZM110.002 37.8697C108.297 40.599 105.988 42.7205 103.058 44.2423L103.98 46.0172C107.22 44.3343 109.799 41.9691 111.698 38.9297L110.002 37.8697ZM112.615 28.6051C112.615 32.0727 111.741 35.1484 110.008 37.8613L111.693 38.9381C113.645 35.8824 114.615 32.4283 114.615 28.6051H112.615ZM110.008 19.3488C111.741 22.0617 112.615 25.1374 112.615 28.6051H114.615C114.615 24.7818 113.645 21.3277 111.693 18.272L110.008 19.3488ZM103.068 13.0326C105.992 14.514 108.298 16.6133 110.002 19.3404L111.698 18.2804C109.797 15.2389 107.216 12.8916 103.971 11.2484L103.068 13.0326ZM93.3042 10.7369C96.8811 10.7369 100.126 11.5047 103.058 13.0279L103.98 11.2531C100.743 9.57143 97.1784 8.73688 93.3042 8.73688V10.7369ZM81.2867 41.6168C84.5243 44.9822 88.5522 46.6706 93.3042 46.6706V44.6706C89.0828 44.6706 85.5794 43.1942 82.728 40.2302L81.2867 41.6168ZM76.5006 28.6051C76.5006 33.8283 78.075 38.1911 81.2778 41.6074L82.7369 40.2395C79.9307 37.2462 78.5006 33.3968 78.5006 28.6051H76.5006ZM81.2821 15.6582C78.075 19.0363 76.5006 23.382 76.5006 28.6051H78.5006C78.5006 23.8131 79.9306 19.9866 82.7326 17.0353L81.2821 15.6582ZM93.3042 10.5396C88.548 10.5396 84.5188 12.2511 81.2823 15.658L82.7323 17.0355C85.5849 14.0328 89.087 12.5396 93.3042 12.5396V10.5396ZM105.326 15.658C102.09 12.2511 98.0604 10.5396 93.3042 10.5396V12.5396C97.5215 12.5396 101.024 14.0328 103.876 17.0355L105.326 15.658ZM110.168 28.6051C110.168 23.3783 108.571 19.0309 105.322 15.6535L103.88 17.04C106.72 19.992 108.168 23.8169 108.168 28.6051H110.168ZM105.326 41.6122C108.571 38.1965 110.168 33.8321 110.168 28.6051H108.168C108.168 33.393 106.72 37.2408 103.876 40.2347L105.326 41.6122ZM93.3042 46.6706C98.0562 46.6706 102.084 44.9822 105.322 41.6168L103.88 40.2302C101.029 43.1942 97.5256 44.6706 93.3042 44.6706V46.6706ZM132.267 10.179C130.505 10.179 129.058 10.843 128.084 12.226L129.72 13.3769C130.269 12.5967 131.065 12.179 132.267 12.179V10.179ZM133.048 10.179H132.267V12.179H133.048V10.179ZM132.048 10.5781V11.179H134.048V10.5781H132.048ZM119.829 11.5781H133.048V9.57813H119.829V11.5781ZM120.884 11.0795L120.824 10.4786L118.834 10.6776L118.894 11.2785L120.884 11.0795ZM120.61 10.179H119.889V12.179H120.61V10.179ZM123.894 11.3122C122.973 10.5449 121.858 10.179 120.61 10.179V12.179C121.445 12.179 122.092 12.4141 122.614 12.8486L123.894 11.3122ZM125.511 14.0887C125.401 12.9288 124.807 11.9826 123.847 11.2753L122.661 12.8854C123.223 13.2998 123.47 13.7557 123.52 14.2783L125.511 14.0887ZM125.516 46.632V14.1835H123.516V46.632H125.516ZM123.226 53.4626C124.737 51.3469 125.516 49.0636 125.516 46.632H123.516C123.516 48.607 122.892 50.4899 121.599 52.3001L123.226 53.4626ZM117.658 57.6833C119.866 57.0073 121.72 55.5719 123.226 53.4626L121.599 52.3001C120.301 54.1167 118.79 55.2451 117.072 55.7709L117.658 57.6833ZM118.365 57.328V56.7271H116.365V57.328H118.365ZM124.356 53.4295C122.375 55.3738 120.061 56.328 117.365 56.328V58.328C120.598 58.328 123.411 57.159 125.757 54.8569L124.356 53.4295ZM127.361 46.632C127.361 49.2702 126.381 51.5145 124.369 53.4166L125.743 54.8699C128.138 52.6057 129.361 49.8425 129.361 46.632H127.361ZM127.361 14.4239V46.632H129.361V14.4239H127.361ZM128.07 12.2468C127.649 12.8792 127.415 13.5897 127.364 14.3574L129.359 14.4904C129.388 14.0562 129.515 13.6851 129.734 13.3562L128.07 12.2468ZM139.273 47.0311C140.463 47.0311 141.516 46.651 142.361 45.8593L140.993 44.4002C140.556 44.8103 140.007 45.0311 139.273 45.0311V47.0311ZM138.432 47.0311H139.273V45.0311H138.432V47.0311ZM139.432 46.632V46.0311H137.432V46.632H139.432ZM162.829 45.632H138.432V47.632H162.829V45.632ZM165.2 37.6802L161.895 46.273L163.762 46.991L167.067 38.3981L165.2 37.6802ZM165.533 39.0392H166.133V37.0392H165.533V39.0392ZM164.281 42.1358C165.02 41.1786 165.737 39.9482 166.437 38.4662L164.628 37.6121C163.966 39.0144 163.321 40.1075 162.698 40.9129L164.281 42.1358ZM161.052 44.7022C162.434 44.0113 163.538 43.1577 164.298 42.1125L162.681 40.9362C162.159 41.6536 161.34 42.3223 160.158 42.9133L161.052 44.7022ZM155.978 45.7692C157.932 45.7692 159.642 45.4301 161.064 44.6964L160.147 42.9192C159.084 43.4674 157.71 43.7692 155.978 43.7692V45.7692ZM146.544 45.7692H155.978V43.7692H146.544V45.7692ZM145.544 29.5064V44.7692H147.544V29.5064H145.544ZM157 28.5064H146.544V30.5064H157V28.5064ZM158.372 28.8104C157.97 28.6595 157.548 28.5612 157.11 28.5125L156.889 30.5003C157.173 30.5318 157.432 30.5937 157.67 30.6831L158.372 28.8104ZM160.283 32.0302C160.283 31.3479 160.156 30.6999 159.843 30.1344C159.524 29.5577 159.046 29.1272 158.451 28.8439L157.591 30.6496C157.838 30.7669 157.991 30.9173 158.093 31.1018C158.201 31.2974 158.283 31.5908 158.283 32.0302H160.283ZM160.283 32.8114V32.0302H158.283V32.8114H160.283ZM159.944 31.8114H159.283V33.8114H159.944V31.8114ZM158.944 24.3988V32.8114H160.944V24.3988H158.944ZM159.283 25.3988H159.944V23.3988H159.283V25.3988ZM160.283 25.1799V24.3988H158.283V25.1799H160.283ZM159.359 27.6584C159.988 26.9731 160.283 26.1226 160.283 25.1799H158.283C158.283 25.6795 158.138 26.0307 157.885 26.3069L159.359 27.6584ZM156.82 28.7037C157.828 28.7037 158.749 28.3926 159.39 27.6228L157.854 26.3425C157.694 26.5341 157.414 26.7037 156.82 26.7037V28.7037ZM146.544 28.7037H156.82V26.7037H146.544V28.7037ZM145.544 12.4409V27.7037H147.544V12.4409H145.544ZM159.043 11.4409H146.544V13.4409H159.043V11.4409ZM161.937 12.6599C161.172 11.8406 160.179 11.4409 159.043 11.4409V13.4409C159.669 13.4409 160.118 13.6421 160.475 14.0246L161.937 12.6599ZM163.047 15.5055C163.047 14.4175 162.675 13.4508 161.937 12.6599L160.475 14.0246C160.859 14.4355 161.047 14.9109 161.047 15.5055H163.047ZM163.047 16.4068V15.5055H161.047V16.4068H163.047ZM162.799 15.471L162.138 15.4109L161.957 17.4027L162.618 17.4628L162.799 15.471ZM161.708 9.61669V16.4669H163.708V9.61669H161.708ZM160.495 11.1994C161.712 10.9638 162.631 10.7455 163.115 10.5305L162.302 8.70289C162.065 8.80835 161.381 8.99064 160.115 9.23582L160.495 11.1994ZM155.978 11.5781C157.667 11.5781 159.175 11.4548 160.495 11.1994L160.115 9.23582C158.951 9.46109 157.575 9.57813 155.978 9.57813V11.5781ZM138.432 11.5781H155.978V9.57813H138.432V11.5781ZM139.432 11.179V10.5781H137.432V11.179H139.432ZM139.273 10.179H138.432V12.179H139.273V10.179ZM142.399 11.3305C141.524 10.5584 140.463 10.179 139.273 10.179V12.179C140.007 12.179 140.588 12.4005 141.075 12.8302L142.399 11.3305ZM143.759 14.3037C143.759 13.1256 143.287 12.1147 142.399 11.3305L141.075 12.8302C141.549 13.2479 141.759 13.7192 141.759 14.3037H143.759ZM143.759 42.8463V14.3037H141.759V42.8463H143.759ZM142.362 45.858C143.22 45.0506 143.705 44.0495 143.758 42.8917L141.76 42.8009C141.732 43.4058 141.496 43.9269 140.992 44.4016L142.362 45.858ZM190.771 46.4733C184.828 46.4344 180.247 44.7892 176.909 41.6384L175.536 43.0929C179.328 46.6721 184.442 48.432 190.758 48.4732L190.771 46.4733ZM200.081 44.5215C197.258 45.8187 194.157 46.4733 190.764 46.4733V48.4733C194.422 48.4733 197.811 47.7658 200.916 46.3389L200.081 44.5215ZM206.45 39.1767C205.003 41.4035 202.893 43.1917 200.071 44.5262L200.926 46.3342C204.034 44.8645 206.45 42.8471 208.127 40.2667L206.45 39.1767ZM206.953 31.4093L206.292 39.6416L208.286 39.8017L208.947 31.5694L206.953 31.4093ZM207.409 32.4894H207.95V30.4894H207.409V32.4894ZM205.576 40.1269C207.269 37.7819 208.197 34.9064 208.407 31.5518L206.411 31.427C206.22 34.4819 205.385 36.9745 203.954 38.9559L205.576 40.1269ZM199.313 45.1547C201.861 44.1183 203.955 42.4309 205.583 40.1169L203.947 38.9659C202.531 40.9784 200.739 42.4157 198.56 43.3021L199.313 45.1547ZM190.764 46.6105C193.985 46.6105 196.839 46.1359 199.305 45.158L198.568 43.2988C196.387 44.1636 193.793 44.6105 190.764 44.6105V46.6105ZM182.022 44.3674C184.56 45.8731 187.485 46.6105 190.764 46.6105V44.6105C187.794 44.6105 185.231 43.9458 183.042 42.6473L182.022 44.3674ZM176.227 38.06C177.552 40.7536 179.487 42.8638 182.022 44.3674L183.042 42.6473C180.85 41.3466 179.179 39.531 178.021 37.177L176.227 38.06ZM174.261 28.6051C174.261 32.1701 174.904 35.3292 176.224 38.0545L178.024 37.1826C176.86 34.7802 176.261 31.9304 176.261 28.6051H174.261ZM178.667 15.4342C175.692 18.7106 174.261 23.1419 174.261 28.6051H176.261C176.261 23.4924 177.594 19.5912 180.148 16.7786L178.667 15.4342ZM190.704 10.5396C185.704 10.5396 181.651 12.1469 178.667 15.4342L180.148 16.7786C182.691 13.9767 186.17 12.5396 190.704 12.5396V10.5396ZM206.577 21.6325C205.667 17.9956 203.876 15.186 201.159 13.3017C198.457 11.4281 194.943 10.5396 190.704 10.5396V12.5396C194.678 12.5396 197.753 13.3736 200.019 14.9451C202.27 16.506 203.823 18.8641 204.636 22.1175L206.577 21.6325ZM206.147 20.875H205.606V22.875H206.147V20.875ZM203.837 13.4954L205.159 22.0281L207.135 21.7219L205.813 13.1892L203.837 13.4954ZM198.029 11.6675C200.476 12.2889 202.563 13.136 204.305 14.1965L205.345 12.4881C203.402 11.3052 201.123 10.3897 198.522 9.72908L198.029 11.6675ZM190.764 10.7369C193.161 10.7369 195.582 11.046 198.029 11.6675L198.522 9.72908C195.921 9.06868 193.335 8.73688 190.764 8.73688V10.7369ZM176.909 15.5117C180.245 12.3629 184.823 10.7369 190.764 10.7369V8.73688C184.447 8.73688 179.331 10.4759 175.536 14.0572L176.909 15.5117ZM171.935 28.6051C171.935 22.9706 173.624 18.6469 176.913 15.5078L175.532 14.0611C171.77 17.652 169.935 22.542 169.935 28.6051H171.935ZM176.913 41.6423C173.623 38.5018 171.935 34.1971 171.935 28.6051H169.935C169.935 34.6304 171.771 39.4994 175.532 43.089L176.913 41.6423ZM228.647 12.3207V42.8463H230.647V12.3207H228.647ZM240.523 11.3207H229.647V13.3207H240.523V11.3207ZM243.418 12.5398C242.653 11.7204 241.659 11.3207 240.523 11.3207V13.3207C241.15 13.3207 241.598 13.522 241.955 13.9044L243.418 12.5398ZM244.528 15.3853C244.528 14.2974 244.156 13.3306 243.418 12.5398L241.955 13.9044C242.339 14.3154 242.528 14.7908 242.528 15.3853H244.528ZM244.528 16.3468V15.3853H242.528V16.3468H244.528ZM244.189 15.3468H243.528V17.3468H244.189V15.3468ZM243.189 9.55661V16.3468H245.189V9.55661H243.189ZM237.459 11.518C240.396 11.518 242.786 11.1946 244.56 10.4851L243.817 8.62813C242.386 9.20053 240.29 9.51804 237.459 9.51804V11.518ZM217.869 11.518H237.459V9.51804H217.869V11.518ZM214.457 11.2719C215.946 11.4328 217.092 11.518 217.869 11.518V9.51804C217.205 9.51804 216.148 9.44302 214.672 9.28348L214.457 11.2719ZM210.828 10.4851C211.75 10.8541 212.974 11.1072 214.454 11.2716L214.675 9.2838C213.27 9.12774 212.251 8.90011 211.571 8.62813L210.828 10.4851ZM212.199 16.3468V9.55661H210.199V16.3468H212.199ZM211.86 15.3468H211.199V17.3468H211.86V15.3468ZM210.86 15.3853V16.3468H212.86V15.3853H210.86ZM211.886 12.5671C211.198 13.361 210.86 14.3186 210.86 15.3853H212.86C212.86 14.7695 213.044 14.285 213.397 13.877L211.886 12.5671ZM214.865 11.3207C213.703 11.3207 212.684 11.7107 211.91 12.5398L213.373 13.9044C213.72 13.5317 214.184 13.3207 214.865 13.3207V11.3207ZM225.741 11.3207H214.865V13.3207H225.741V11.3207ZM226.741 42.7863V12.3207H224.741V42.7863H226.741ZM225.345 45.7979C226.203 44.9905 226.687 43.9894 226.74 42.8317L224.742 42.7408C224.715 43.3457 224.478 43.8669 223.974 44.3415L225.345 45.7979ZM222.196 47.0311C223.404 47.0311 224.473 46.6188 225.345 45.7979L223.974 44.3415C223.484 44.8025 222.91 45.0311 222.196 45.0311V47.0311ZM221.475 47.0311H222.196V45.0311H221.475V47.0311ZM222.475 46.632V46.0311H220.475V46.632H222.475ZM233.853 45.632H221.475V47.632H233.853V45.632ZM232.853 46.0311V46.632H234.853V46.0311H232.853ZM233.192 47.0311H233.853V45.0311H233.192V47.0311ZM230.976 46.4909C231.654 46.8563 232.4 47.0311 233.192 47.0311V45.0311C232.703 45.0311 232.287 44.9255 231.924 44.73L230.976 46.4909ZM228.647 42.8786C228.7 44.5055 229.528 45.7422 230.99 46.4987L231.909 44.7223C231.048 44.277 230.674 43.6709 230.646 42.8141L228.647 42.8786ZM284.036 5.56915C290.227 5.56915 295.149 7.4379 298.899 11.1121L300.299 9.68358C296.117 5.58621 290.663 3.56915 284.036 3.56915V5.56915ZM263.665 5.56915H284.036V3.56915H263.665V5.56915ZM264.72 5.07055L264.66 4.46965L262.67 4.66866L262.73 5.26955L264.72 5.07055ZM264.446 4.17005H263.725V6.17005H264.446V4.17005ZM267.757 5.44634C266.817 4.60485 265.699 4.17005 264.446 4.17005V6.17005C265.197 6.17005 265.842 6.41628 266.424 6.93682L267.757 5.44634ZM269.292 8.59517C269.292 7.30721 268.735 6.22677 267.715 5.41071L266.466 6.97245C267.048 7.43831 267.292 7.96026 267.292 8.59517H269.292ZM269.292 42.2454V8.59517H267.292V42.2454H269.292ZM267.797 45.6566C268.73 44.7238 269.241 43.5861 269.291 42.2839L267.293 42.207C267.263 42.9879 266.973 43.6529 266.383 44.2424L267.797 45.6566ZM264.446 47.0311C265.747 47.0311 266.884 46.5697 267.798 45.6566L266.383 44.2424C265.854 44.7715 265.229 45.0311 264.446 45.0311V47.0311ZM263.665 47.0311H264.446V45.0311H263.665V47.0311ZM264.665 46.632V46.0311H262.665V46.632H264.665ZM284.036 45.632H263.665V47.632H284.036V45.632ZM298.903 40.1455C295.153 43.7813 290.23 45.632 284.036 45.632V47.632C290.66 47.632 296.113 45.6369 300.295 41.5813L298.903 40.1455ZM304.608 25.6006C304.608 31.6571 302.689 36.4728 298.903 40.1456L300.295 41.5812C304.521 37.4823 306.608 32.1228 306.608 25.6006H304.608ZM298.906 11.1192C302.689 14.7507 304.608 19.5439 304.608 25.6006H306.608C306.608 19.0785 304.521 13.7366 300.292 9.67648L298.906 11.1192ZM271.198 6.37185V44.8293H273.198V6.37185H271.198ZM284.036 5.37185H272.198V7.37185H284.036V5.37185ZM297.102 10.9964C293.772 7.23848 289.384 5.37185 284.036 5.37185V7.37185C288.863 7.37185 292.687 9.03048 295.606 12.3231L297.102 10.9964ZM302.101 25.6006C302.101 19.6416 300.462 14.7385 297.098 10.9917L295.61 12.3278C298.576 15.6316 300.101 20.0223 300.101 25.6006H302.101ZM299.835 36.138C301.355 33.0548 302.101 29.5341 302.101 25.6006H300.101C300.101 29.2784 299.405 32.4878 298.041 35.2534L299.835 36.138ZM293.453 43.2774C296.227 41.5703 298.356 39.1794 299.837 36.1329L298.039 35.2585C296.715 37.9805 294.839 40.0763 292.405 41.5741L293.453 43.2774ZM284.036 45.8293C287.566 45.8293 290.719 44.9864 293.459 43.2737L292.399 41.5777C290.012 43.0698 287.235 43.8293 284.036 43.8293V45.8293ZM272.198 45.8293H284.036V43.8293H272.198V45.8293Z" fill="#102027" mask="url(#path-1-outside-1)"/>
</g>
<defs>
<filter id="filter0_d" x="0.89502" y="0" width="426.435" height="86.864" filterUnits="userSpaceOnUse" color-interpolation-filters="sRGB">
<feFlood flood-opacity="0" result="BackgroundImageFix"/>
<feColorMatrix in="SourceAlpha" type="matrix" values="0 0 0 0 0 0 0 0 0 0 0 0 0 0 0 0 0 0 127 0"/>
<feOffset dx="4" dy="4"/>
<feGaussianBlur stdDeviation="3"/>
<feColorMatrix type="matrix" values="0 0 0 0 0 0 0 0 0 0 0 0 0 0 0 0 0 0 0.3 0"/>
<feBlend mode="normal" in2="BackgroundImageFix" result="effect1_dropShadow"/>
<feBlend mode="normal" in="SourceGraphic" in2="effect1_dropShadow" result="shape"/>
</filter>
</defs>
</svg>
